<svg width="156" height="156" viewBox="0 0 156 156" fill="none" xmlns="http://www.w3.org/2000/svg">
<g clip-path="url(#clip0_535_2)">
<path d="M49.5936 184.433C30.4647 248.415 -0.512552 233.854 -23.8498 231.342C-47.1871 228.83 -66.2562 214.177 -63.744 190.839C-61.2318 167.502 -68.0574 156.166 -3.06505 141.046C61.9273 125.927 68.7225 120.451 49.5936 184.433Z" fill="#137EFF"/>
<circle cx="140.5" cy="-4.5" r="28.5" fill="#4C5CF0"/>
<path d="M126.963 15.6305C135.163 6.58882 142.284 10.8475 133.656 20.2629C125.028 29.6784 132.3 31.8509 138.35 25.1182C144.399 18.3855 154.092 15.5559 145.358 28.8832C136.624 42.2105 148.091 35.4398 152.627 29.2821C157.163 23.1245 164.014 26.2436 157.343 37.5016" stroke="#F7C546" stroke-linecap="round" stroke-linejoin="round"/>
</g>
<defs>
<clipPath id="clip0_535_2">
<rect width="156" height="156" fill="white"/>
</clipPath>
</defs>
</svg>
