<svg width="156" height="156" viewBox="0 0 156 156" fill="none" xmlns="http://www.w3.org/2000/svg">
<g clip-path="url(#clip0_535_2)">
<path d="M139.71 183.433C158.839 247.415 189.816 232.854 213.154 230.342C236.491 227.83 255.56 213.177 253.048 189.839C250.535 166.502 257.361 155.166 192.369 140.046C127.376 124.927 120.581 119.451 139.71 183.433Z" fill="#F7C546"/>
<path d="M144.162 135.714C149.143 146.857 142.38 151.665 137.229 139.979C132.078 128.293 127.165 134.078 130.896 142.324C134.628 150.57 133.321 160.582 124.631 147.226C115.941 133.871 117.529 147.092 121.342 153.722C125.156 160.351 119.546 165.369 111.92 154.734" stroke="#4C5CF0" stroke-linecap="round" stroke-linejoin="round"/>
<circle cx="155.5" cy="-5.5" r="28.5" fill="#F7C546"/>
</g>
<defs>
<clipPath id="clip0_535_2">
<rect width="156" height="156" fill="white"/>
</clipPath>
</defs>
</svg>
