<svg width="156" height="40" viewBox="0 0 156 40" fill="none" xmlns="http://www.w3.org/2000/svg">
<rect width="156" height="40" rx="6" fill="black"/>
<path d="M18.2696 19.4629L8.12207 30.0108C8.23603 30.4115 8.44081 30.781 8.72076 31.0911C9.00072 31.4013 9.34843 31.6438 9.73733 31.8001C10.1262 31.9565 10.546 32.0225 10.9646 31.9933C11.3832 31.964 11.7894 31.8401 12.1524 31.6312L23.5703 25.1795L18.2696 19.4629Z" fill="#EA4335"/>
<path d="M28.5304 17.6701L23.5929 14.8643L18.0352 19.703L23.6155 25.1645L28.5154 22.3887C28.9495 22.1632 29.3131 21.8242 29.5667 21.4083C29.8204 20.9924 29.9545 20.5155 29.9545 20.0294C29.9545 19.5433 29.8204 19.0664 29.5667 18.6505C29.3131 18.2346 28.9495 17.8956 28.5154 17.6701L28.5304 17.6701Z" fill="#FBBC04"/>
<path d="M8.12205 9.99609C8.06075 10.2211 8.03022 10.4532 8.03128 10.6863V29.3213C8.03188 29.5543 8.06239 29.7863 8.12205 30.0116L18.6175 19.7337L8.12205 9.99609Z" fill="#4285F4"/>
<path d="M18.3452 20.0033L23.593 14.8644L12.1902 8.3826C11.7612 8.13333 11.2733 8.00132 10.7761 8.00001C9.5423 7.99763 8.4576 8.81006 8.12207 9.9881L18.3452 20.0033Z" fill="#34A853"/>
<path d="M45.05 8.05C44.8567 7.64333 44.5767 7.33 44.21 7.11C43.8433 6.88333 43.4167 6.77 42.93 6.77C42.4433 6.77 42.0033 6.88333 41.61 7.11C41.2233 7.33 40.9167 7.65 40.69 8.07C40.47 8.48333 40.36 8.96333 40.36 9.51C40.36 10.0567 40.47 10.5367 40.69 10.95C40.9167 11.3633 41.2233 11.6833 41.61 11.91C42.0033 12.13 42.4433 12.24 42.93 12.24C43.61 12.24 44.17 12.0367 44.61 11.63C45.05 11.2233 45.3067 10.6733 45.38 9.98H42.6V9.24H46.35V9.94C46.2967 10.5133 46.1167 11.04 45.81 11.52C45.5033 11.9933 45.1 12.37 44.6 12.65C44.1 12.9233 43.5433 13.06 42.93 13.06C42.2833 13.06 41.6933 12.91 41.16 12.61C40.6267 12.3033 40.2033 11.88 39.89 11.34C39.5833 10.8 39.43 10.19 39.43 9.51C39.43 8.83 39.5833 8.22 39.89 7.68C40.2033 7.13333 40.6267 6.71 41.16 6.41C41.6933 6.10333 42.2833 5.95 42.93 5.95C43.67 5.95 44.3233 6.13333 44.89 6.5C45.4633 6.86667 45.88 7.38333 46.14 8.05H45.05ZM48.4632 6.77V9.1H51.0032V9.85H48.4632V12.25H51.3032V13H47.5532V6.02H51.3032V6.77H48.4632ZM56.9702 6.03V6.77H55.0702V13H54.1602V6.77H52.2502V6.03H56.9702ZM61.6663 6.03V13H60.7563V6.03H61.6663ZM67.5073 6.03V6.77H65.6073V13H64.6973V6.77H62.7873V6.03H67.5073ZM74.4534 13.07C73.8068 13.07 73.2168 12.92 72.6834 12.62C72.1501 12.3133 71.7268 11.89 71.4134 11.35C71.1068 10.8033 70.9534 10.19 70.9534 9.51C70.9534 8.83 71.1068 8.22 71.4134 7.68C71.7268 7.13333 72.1501 6.71 72.6834 6.41C73.2168 6.10333 73.8068 5.95 74.4534 5.95C75.1068 5.95 75.7001 6.10333 76.2334 6.41C76.7668 6.71 77.1868 7.13 77.4934 7.67C77.8001 8.21 77.9534 8.82333 77.9534 9.51C77.9534 10.1967 77.8001 10.81 77.4934 11.35C77.1868 11.89 76.7668 12.3133 76.2334 12.62C75.7001 12.92 75.1068 13.07 74.4534 13.07ZM74.4534 12.28C74.9401 12.28 75.3768 12.1667 75.7634 11.94C76.1568 11.7133 76.4634 11.39 76.6834 10.97C76.9101 10.55 77.0234 10.0633 77.0234 9.51C77.0234 8.95 76.9101 8.46333 76.6834 8.05C76.4634 7.63 76.1601 7.30667 75.7734 7.08C75.3868 6.85333 74.9468 6.74 74.4534 6.74C73.9601 6.74 73.5201 6.85333 73.1334 7.08C72.7468 7.30667 72.4401 7.63 72.2134 8.05C71.9934 8.46333 71.8834 8.95 71.8834 9.51C71.8834 10.0633 71.9934 10.55 72.2134 10.97C72.4401 11.39 72.7468 11.7133 73.1334 11.94C73.5268 12.1667 73.9668 12.28 74.4534 12.28ZM84.6348 13H83.7248L80.0648 7.45V13H79.1548V6.02H80.0648L83.7248 11.56V6.02H84.6348V13Z" fill="white"/>
<path d="M47.092 25.07C46.84 24.5847 46.49 24.2207 46.042 23.978C45.594 23.726 45.076 23.6 44.488 23.6C43.844 23.6 43.27 23.7447 42.766 24.034C42.262 24.3233 41.8653 24.734 41.576 25.266C41.296 25.798 41.156 26.414 41.156 27.114C41.156 27.814 41.296 28.4347 41.576 28.976C41.8653 29.508 42.262 29.9187 42.766 30.208C43.27 30.4973 43.844 30.642 44.488 30.642C45.356 30.642 46.0607 30.3993 46.602 29.914C47.1433 29.4287 47.4747 28.7707 47.596 27.94H43.942V26.666H49.304V27.912C49.2013 28.668 48.9307 29.3633 48.492 29.998C48.0627 30.6327 47.498 31.1413 46.798 31.524C46.1073 31.8973 45.3373 32.084 44.488 32.084C43.5733 32.084 42.738 31.874 41.982 31.454C41.226 31.0247 40.624 30.432 40.176 29.676C39.7373 28.92 39.518 28.066 39.518 27.114C39.518 26.162 39.7373 25.308 40.176 24.552C40.624 23.796 41.226 23.208 41.982 22.788C42.7473 22.3587 43.5827 22.144 44.488 22.144C45.524 22.144 46.4433 22.4007 47.246 22.914C48.058 23.418 48.646 24.1367 49.01 25.07H47.092ZM54.2241 32.126C53.4961 32.126 52.8381 31.9627 52.2501 31.636C51.6621 31.3 51.2001 30.8333 50.8641 30.236C50.5281 29.6293 50.3601 28.9293 50.3601 28.136C50.3601 27.352 50.5328 26.6567 50.8781 26.05C51.2235 25.4433 51.6948 24.9767 52.2921 24.65C52.8895 24.3233 53.5568 24.16 54.2941 24.16C55.0315 24.16 55.6988 24.3233 56.2961 24.65C56.8935 24.9767 57.3648 25.4433 57.7101 26.05C58.0555 26.6567 58.2281 27.352 58.2281 28.136C58.2281 28.92 58.0508 29.6153 57.6961 30.222C57.3415 30.8287 56.8561 31.3 56.2401 31.636C55.6335 31.9627 54.9615 32.126 54.2241 32.126ZM54.2241 30.74C54.6348 30.74 55.0175 30.642 55.3721 30.446C55.7361 30.25 56.0301 29.956 56.2541 29.564C56.4781 29.172 56.5901 28.696 56.5901 28.136C56.5901 27.576 56.4828 27.1047 56.2681 26.722C56.0535 26.33 55.7688 26.036 55.4141 25.84C55.0595 25.644 54.6768 25.546 54.2661 25.546C53.8555 25.546 53.4728 25.644 53.1181 25.84C52.7728 26.036 52.4975 26.33 52.2921 26.722C52.0868 27.1047 51.9841 27.576 51.9841 28.136C51.9841 28.9667 52.1941 29.6107 52.6141 30.068C53.0435 30.516 53.5801 30.74 54.2241 30.74ZM63.1519 32.126C62.4239 32.126 61.7659 31.9627 61.1779 31.636C60.5899 31.3 60.1279 30.8333 59.7919 30.236C59.4559 29.6293 59.2879 28.9293 59.2879 28.136C59.2879 27.352 59.4605 26.6567 59.8059 26.05C60.1512 25.4433 60.6225 24.9767 61.2199 24.65C61.8172 24.3233 62.4845 24.16 63.2219 24.16C63.9592 24.16 64.6265 24.3233 65.2239 24.65C65.8212 24.9767 66.2925 25.4433 66.6379 26.05C66.9832 26.6567 67.1559 27.352 67.1559 28.136C67.1559 28.92 66.9785 29.6153 66.6239 30.222C66.2692 30.8287 65.7839 31.3 65.1679 31.636C64.5612 31.9627 63.8892 32.126 63.1519 32.126ZM63.1519 30.74C63.5625 30.74 63.9452 30.642 64.2999 30.446C64.6639 30.25 64.9579 29.956 65.1819 29.564C65.4059 29.172 65.5179 28.696 65.5179 28.136C65.5179 27.576 65.4105 27.1047 65.1959 26.722C64.9812 26.33 64.6965 26.036 64.3419 25.84C63.9872 25.644 63.6045 25.546 63.1939 25.546C62.7832 25.546 62.4005 25.644 62.0459 25.84C61.7005 26.036 61.4252 26.33 61.2199 26.722C61.0145 27.1047 60.9119 27.576 60.9119 28.136C60.9119 28.9667 61.1219 29.6107 61.5419 30.068C61.9712 30.516 62.5079 30.74 63.1519 30.74ZM71.8416 24.16C72.4389 24.16 72.9663 24.2813 73.4236 24.524C73.8903 24.7573 74.2543 25.0513 74.5156 25.406V24.286H76.1256V32.126C76.1256 32.8353 75.9763 33.4653 75.6776 34.016C75.3789 34.576 74.9449 35.0147 74.3756 35.332C73.8156 35.6493 73.1436 35.808 72.3596 35.808C71.3143 35.808 70.4463 35.5607 69.7556 35.066C69.0649 34.5807 68.6729 33.918 68.5796 33.078H70.1616C70.2829 33.4793 70.5396 33.8013 70.9316 34.044C71.3329 34.296 71.8089 34.422 72.3596 34.422C73.0036 34.422 73.5216 34.226 73.9136 33.834C74.3149 33.442 74.5156 32.8727 74.5156 32.126V30.838C74.2449 31.202 73.8763 31.51 73.4096 31.762C72.9523 32.0047 72.4296 32.126 71.8416 32.126C71.1696 32.126 70.5536 31.958 69.9936 31.622C69.4429 31.2767 69.0043 30.8007 68.6776 30.194C68.3603 29.578 68.2016 28.8827 68.2016 28.108C68.2016 27.3333 68.3603 26.6473 68.6776 26.05C69.0043 25.4527 69.4429 24.9907 69.9936 24.664C70.5536 24.328 71.1696 24.16 71.8416 24.16ZM74.5156 28.136C74.5156 27.604 74.4036 27.142 74.1796 26.75C73.9649 26.358 73.6803 26.0593 73.3256 25.854C72.9709 25.6487 72.5883 25.546 72.1776 25.546C71.7669 25.546 71.3843 25.6487 71.0296 25.854C70.6749 26.05 70.3856 26.344 70.1616 26.736C69.9469 27.1187 69.8396 27.576 69.8396 28.108C69.8396 28.64 69.9469 29.1067 70.1616 29.508C70.3856 29.9093 70.6749 30.2173 71.0296 30.432C71.3936 30.6373 71.7763 30.74 72.1776 30.74C72.5883 30.74 72.9709 30.6373 73.3256 30.432C73.6803 30.2267 73.9649 29.928 74.1796 29.536C74.4036 29.1347 74.5156 28.668 74.5156 28.136ZM79.8179 21.64V32H78.2219V21.64H79.8179ZM88.9833 27.954C88.9833 28.2433 88.9646 28.5047 88.9273 28.738H83.0333C83.0799 29.354 83.3086 29.8487 83.7193 30.222C84.1299 30.5953 84.6339 30.782 85.2313 30.782C86.0899 30.782 86.6966 30.4227 87.0513 29.704H88.7733C88.5399 30.4133 88.1153 30.9967 87.4993 31.454C86.8926 31.902 86.1366 32.126 85.2313 32.126C84.4939 32.126 83.8313 31.9627 83.2433 31.636C82.6646 31.3 82.2073 30.8333 81.8713 30.236C81.5446 29.6293 81.3813 28.9293 81.3813 28.136C81.3813 27.3427 81.5399 26.6473 81.8573 26.05C82.1839 25.4433 82.6366 24.9767 83.2153 24.65C83.8033 24.3233 84.4753 24.16 85.2313 24.16C85.9593 24.16 86.6079 24.3187 87.1773 24.636C87.7466 24.9533 88.1899 25.4013 88.5073 25.98C88.8246 26.5493 88.9833 27.2073 88.9833 27.954ZM87.3173 27.45C87.3079 26.862 87.0979 26.3907 86.6873 26.036C86.2766 25.6813 85.7679 25.504 85.1613 25.504C84.6106 25.504 84.1393 25.6813 83.7473 26.036C83.3553 26.3813 83.1219 26.8527 83.0473 27.45H87.3173ZM100.995 25.168C100.995 25.6627 100.878 26.1293 100.645 26.568C100.411 27.0067 100.038 27.366 99.5246 27.646C99.0113 27.9167 98.3533 28.052 97.5506 28.052H95.7866V32H94.1906V22.27H97.5506C98.2973 22.27 98.9273 22.4007 99.4406 22.662C99.9633 22.914 100.351 23.2593 100.603 23.698C100.864 24.1367 100.995 24.6267 100.995 25.168ZM97.5506 26.75C98.1573 26.75 98.61 26.6147 98.9086 26.344C99.2073 26.064 99.3566 25.672 99.3566 25.168C99.3566 24.104 98.7546 23.572 97.5506 23.572H95.7866V26.75H97.5506ZM104.113 21.64V32H102.517V21.64H104.113ZM105.676 28.108C105.676 27.3333 105.835 26.6473 106.152 26.05C106.479 25.4527 106.918 24.9907 107.468 24.664C108.028 24.328 108.644 24.16 109.316 24.16C109.923 24.16 110.45 24.2813 110.898 24.524C111.356 24.7573 111.72 25.0513 111.99 25.406V24.286H113.6V32H111.99V30.852C111.72 31.216 111.351 31.5193 110.884 31.762C110.418 32.0047 109.886 32.126 109.288 32.126C108.626 32.126 108.019 31.958 107.468 31.622C106.918 31.2767 106.479 30.8007 106.152 30.194C105.835 29.578 105.676 28.8827 105.676 28.108ZM111.99 28.136C111.99 27.604 111.878 27.142 111.654 26.75C111.44 26.358 111.155 26.0593 110.8 25.854C110.446 25.6487 110.063 25.546 109.652 25.546C109.242 25.546 108.859 25.6487 108.504 25.854C108.15 26.05 107.86 26.344 107.636 26.736C107.422 27.1187 107.314 27.576 107.314 28.108C107.314 28.64 107.422 29.1067 107.636 29.508C107.86 29.9093 108.15 30.2173 108.504 30.432C108.868 30.6373 109.251 30.74 109.652 30.74C110.063 30.74 110.446 30.6373 110.8 30.432C111.155 30.2267 111.44 29.928 111.654 29.536C111.878 29.1347 111.99 28.668 111.99 28.136ZM122.64 24.286L117.908 35.626H116.256L117.824 31.874L114.786 24.286H116.564L118.734 30.166L120.988 24.286H122.64Z" fill="white"/>
</svg>
