<svg width="156" height="40" viewBox="0 0 156 40" fill="none" xmlns="http://www.w3.org/2000/svg">
<rect width="156" height="40" rx="6" fill="black"/>
<path d="M47.916 30.012H43.842L43.142 32H41.476L44.962 22.256H46.81L50.296 32H48.616L47.916 30.012ZM47.468 28.71L45.886 24.188L44.29 28.71H47.468ZM53.4077 25.42C53.6784 25.0653 54.0471 24.7667 54.5137 24.524C54.9804 24.2813 55.5077 24.16 56.0957 24.16C56.7677 24.16 57.3791 24.328 57.9297 24.664C58.4897 24.9907 58.9284 25.4527 59.2457 26.05C59.5631 26.6473 59.7217 27.3333 59.7217 28.108C59.7217 28.8827 59.5631 29.578 59.2457 30.194C58.9284 30.8007 58.4897 31.2767 57.9297 31.622C57.3791 31.958 56.7677 32.126 56.0957 32.126C55.5077 32.126 54.9851 32.0093 54.5277 31.776C54.0704 31.5333 53.6971 31.2347 53.4077 30.88V35.668H51.8117V24.286H53.4077V25.42ZM58.0977 28.108C58.0977 27.576 57.9857 27.1187 57.7617 26.736C57.5471 26.344 57.2577 26.05 56.8937 25.854C56.5391 25.6487 56.1564 25.546 55.7457 25.546C55.3444 25.546 54.9617 25.6487 54.5977 25.854C54.2431 26.0593 53.9537 26.358 53.7297 26.75C53.5151 27.142 53.4077 27.604 53.4077 28.136C53.4077 28.668 53.5151 29.1347 53.7297 29.536C53.9537 29.928 54.2431 30.2267 54.5977 30.432C54.9617 30.6373 55.3444 30.74 55.7457 30.74C56.1564 30.74 56.5391 30.6373 56.8937 30.432C57.2577 30.2173 57.5471 29.9093 57.7617 29.508C57.9857 29.1067 58.0977 28.64 58.0977 28.108ZM62.896 25.42C63.1667 25.0653 63.5353 24.7667 64.002 24.524C64.4687 24.2813 64.996 24.16 65.584 24.16C66.256 24.16 66.8673 24.328 67.418 24.664C67.978 24.9907 68.4167 25.4527 68.734 26.05C69.0513 26.6473 69.21 27.3333 69.21 28.108C69.21 28.8827 69.0513 29.578 68.734 30.194C68.4167 30.8007 67.978 31.2767 67.418 31.622C66.8673 31.958 66.256 32.126 65.584 32.126C64.996 32.126 64.4733 32.0093 64.016 31.776C63.5587 31.5333 63.1853 31.2347 62.896 30.88V35.668H61.3V24.286H62.896V25.42ZM67.586 28.108C67.586 27.576 67.474 27.1187 67.25 26.736C67.0353 26.344 66.746 26.05 66.382 25.854C66.0273 25.6487 65.6447 25.546 65.234 25.546C64.8327 25.546 64.45 25.6487 64.086 25.854C63.7313 26.0593 63.442 26.358 63.218 26.75C63.0033 27.142 62.896 27.604 62.896 28.136C62.896 28.668 63.0033 29.1347 63.218 29.536C63.442 29.928 63.7313 30.2267 64.086 30.432C64.45 30.6373 64.8327 30.74 65.234 30.74C65.6447 30.74 66.0273 30.6373 66.382 30.432C66.746 30.2173 67.0353 29.9093 67.25 29.508C67.474 29.1067 67.586 28.64 67.586 28.108ZM77.631 32.098C76.9777 32.098 76.3897 31.986 75.867 31.762C75.3443 31.5287 74.9337 31.202 74.635 30.782C74.3363 30.362 74.187 29.872 74.187 29.312H75.895C75.9323 29.732 76.0957 30.0773 76.385 30.348C76.6837 30.6187 77.099 30.754 77.631 30.754C78.1817 30.754 78.611 30.6233 78.919 30.362C79.227 30.0913 79.381 29.746 79.381 29.326C79.381 28.9993 79.283 28.7333 79.087 28.528C78.9003 28.3227 78.6623 28.164 78.373 28.052C78.093 27.94 77.701 27.8187 77.197 27.688C76.5623 27.52 76.0443 27.352 75.643 27.184C75.251 27.0067 74.915 26.736 74.635 26.372C74.355 26.008 74.215 25.5227 74.215 24.916C74.215 24.356 74.355 23.866 74.635 23.446C74.915 23.026 75.307 22.704 75.811 22.48C76.315 22.256 76.8983 22.144 77.561 22.144C78.5037 22.144 79.2737 22.382 79.871 22.858C80.4777 23.3247 80.8137 23.9687 80.879 24.79H79.115C79.087 24.4353 78.919 24.132 78.611 23.88C78.303 23.628 77.897 23.502 77.393 23.502C76.9357 23.502 76.5623 23.6187 76.273 23.852C75.9837 24.0853 75.839 24.4213 75.839 24.86C75.839 25.1587 75.9277 25.406 76.105 25.602C76.2917 25.7887 76.525 25.938 76.805 26.05C77.085 26.162 77.4677 26.2833 77.953 26.414C78.597 26.5913 79.1197 26.7687 79.521 26.946C79.9317 27.1233 80.277 27.3987 80.557 27.772C80.8463 28.136 80.991 28.626 80.991 29.242C80.991 29.7367 80.8557 30.2033 80.585 30.642C80.3237 31.0807 79.9363 31.4353 79.423 31.706C78.919 31.9673 78.3217 32.098 77.631 32.098ZM84.7362 25.588V29.858C84.7362 30.1473 84.8016 30.3573 84.9322 30.488C85.0722 30.6093 85.3056 30.67 85.6322 30.67H86.6122V32H85.3522C84.6336 32 84.0829 31.832 83.7002 31.496C83.3176 31.16 83.1262 30.614 83.1262 29.858V25.588H82.2162V24.286H83.1262V22.368H84.7362V24.286H86.6122V25.588H84.7362ZM91.4292 32.126C90.7012 32.126 90.0432 31.9627 89.4552 31.636C88.8672 31.3 88.4052 30.8333 88.0692 30.236C87.7332 29.6293 87.5652 28.9293 87.5652 28.136C87.5652 27.352 87.7379 26.6567 88.0832 26.05C88.4285 25.4433 88.8999 24.9767 89.4972 24.65C90.0945 24.3233 90.7619 24.16 91.4992 24.16C92.2365 24.16 92.9039 24.3233 93.5012 24.65C94.0985 24.9767 94.5699 25.4433 94.9152 26.05C95.2605 26.6567 95.4332 27.352 95.4332 28.136C95.4332 28.92 95.2559 29.6153 94.9012 30.222C94.5465 30.8287 94.0612 31.3 93.4452 31.636C92.8385 31.9627 92.1665 32.126 91.4292 32.126ZM91.4292 30.74C91.8399 30.74 92.2225 30.642 92.5772 30.446C92.9412 30.25 93.2352 29.956 93.4592 29.564C93.6832 29.172 93.7952 28.696 93.7952 28.136C93.7952 27.576 93.6879 27.1047 93.4732 26.722C93.2585 26.33 92.9739 26.036 92.6192 25.84C92.2645 25.644 91.8819 25.546 91.4712 25.546C91.0605 25.546 90.6779 25.644 90.3232 25.84C89.9779 26.036 89.7025 26.33 89.4972 26.722C89.2919 27.1047 89.1892 27.576 89.1892 28.136C89.1892 28.9667 89.3992 29.6107 89.8192 30.068C90.2485 30.516 90.7852 30.74 91.4292 30.74ZM98.6069 25.406C98.8403 25.014 99.1483 24.7107 99.5309 24.496C99.9229 24.272 100.385 24.16 100.917 24.16V25.812H100.511C99.8856 25.812 99.4096 25.9707 99.0829 26.288C98.7656 26.6053 98.6069 27.156 98.6069 27.94V32H97.0109V24.286H98.6069V25.406ZM109.454 27.954C109.454 28.2433 109.435 28.5047 109.398 28.738H103.504C103.551 29.354 103.779 29.8487 104.19 30.222C104.601 30.5953 105.105 30.782 105.702 30.782C106.561 30.782 107.167 30.4227 107.522 29.704H109.244C109.011 30.4133 108.586 30.9967 107.97 31.454C107.363 31.902 106.607 32.126 105.702 32.126C104.965 32.126 104.302 31.9627 103.714 31.636C103.135 31.3 102.678 30.8333 102.342 30.236C102.015 29.6293 101.852 28.9293 101.852 28.136C101.852 27.3427 102.011 26.6473 102.328 26.05C102.655 25.4433 103.107 24.9767 103.686 24.65C104.274 24.3233 104.946 24.16 105.702 24.16C106.43 24.16 107.079 24.3187 107.648 24.636C108.217 24.9533 108.661 25.4013 108.978 25.98C109.295 26.5493 109.454 27.2073 109.454 27.954ZM107.788 27.45C107.779 26.862 107.569 26.3907 107.158 26.036C106.747 25.6813 106.239 25.504 105.632 25.504C105.081 25.504 104.61 25.6813 104.218 26.036C103.826 26.3813 103.593 26.8527 103.518 27.45H107.788Z" fill="white"/>
<path d="M43.94 6.03C44.7 6.03 45.3567 6.17333 45.91 6.46C46.47 6.74 46.8967 7.14333 47.19 7.67C47.49 8.19667 47.64 8.81667 47.64 9.53C47.64 10.2433 47.49 10.8633 47.19 11.39C46.8967 11.91 46.47 12.31 45.91 12.59C45.3567 12.8633 44.7 13 43.94 13H41.77V6.03H43.94ZM43.94 12.25C44.84 12.25 45.5267 12.0133 46 11.54C46.4733 11.06 46.71 10.39 46.71 9.53C46.71 8.66333 46.47 7.98667 45.99 7.5C45.5167 7.01333 44.8333 6.77 43.94 6.77H42.68V12.25H43.94ZM51.2303 13.09C50.717 13.09 50.2503 12.9733 49.8303 12.74C49.417 12.5067 49.0903 12.1767 48.8503 11.75C48.617 11.3167 48.5003 10.8167 48.5003 10.25C48.5003 9.69 48.6203 9.19667 48.8603 8.77C49.107 8.33667 49.4403 8.00667 49.8603 7.78C50.2803 7.54667 50.7503 7.43 51.2703 7.43C51.7903 7.43 52.2603 7.54667 52.6803 7.78C53.1003 8.00667 53.4303 8.33333 53.6703 8.76C53.917 9.18667 54.0403 9.68333 54.0403 10.25C54.0403 10.8167 53.9136 11.3167 53.6603 11.75C53.4136 12.1767 53.077 12.5067 52.6503 12.74C52.2236 12.9733 51.7503 13.09 51.2303 13.09ZM51.2303 12.29C51.557 12.29 51.8636 12.2133 52.1503 12.06C52.437 11.9067 52.667 11.6767 52.8403 11.37C53.0203 11.0633 53.1103 10.69 53.1103 10.25C53.1103 9.81 53.0236 9.43667 52.8503 9.13C52.677 8.82333 52.4503 8.59667 52.1703 8.45C51.8903 8.29667 51.587 8.22 51.2603 8.22C50.927 8.22 50.6203 8.29667 50.3403 8.45C50.067 8.59667 49.847 8.82333 49.6803 9.13C49.5136 9.43667 49.4303 9.81 49.4303 10.25C49.4303 10.6967 49.5103 11.0733 49.6703 11.38C49.837 11.6867 50.057 11.9167 50.3303 12.07C50.6036 12.2167 50.9036 12.29 51.2303 12.29ZM62.5368 7.52L60.8268 13H59.8868L58.5668 8.65L57.2468 13H56.3068L54.5868 7.52H55.5168L56.7768 12.12L58.1368 7.52H59.0668L60.3968 12.13L61.6368 7.52H62.5368ZM66.1099 7.42C66.7766 7.42 67.3166 7.62333 67.7299 8.03C68.1433 8.43 68.3499 9.01 68.3499 9.77V13H67.4499V9.9C67.4499 9.35333 67.3133 8.93667 67.0399 8.65C66.7666 8.35667 66.3933 8.21 65.9199 8.21C65.4399 8.21 65.0566 8.36 64.7699 8.66C64.4899 8.96 64.3499 9.39667 64.3499 9.97V13H63.4399V7.52H64.3499V8.3C64.5299 8.02 64.7733 7.80333 65.0799 7.65C65.3933 7.49667 65.7366 7.42 66.1099 7.42ZM70.7464 5.6V13H69.8364V5.6H70.7464ZM74.6873 13.09C74.174 13.09 73.7073 12.9733 73.2873 12.74C72.874 12.5067 72.5473 12.1767 72.3073 11.75C72.074 11.3167 71.9573 10.8167 71.9573 10.25C71.9573 9.69 72.0773 9.19667 72.3173 8.77C72.564 8.33667 72.8973 8.00667 73.3173 7.78C73.7373 7.54667 74.2073 7.43 74.7273 7.43C75.2473 7.43 75.7173 7.54667 76.1373 7.78C76.5573 8.00667 76.8873 8.33333 77.1273 8.76C77.374 9.18667 77.4973 9.68333 77.4973 10.25C77.4973 10.8167 77.3707 11.3167 77.1173 11.75C76.8707 12.1767 76.534 12.5067 76.1073 12.74C75.6807 12.9733 75.2073 13.09 74.6873 13.09ZM74.6873 12.29C75.014 12.29 75.3207 12.2133 75.6073 12.06C75.894 11.9067 76.124 11.6767 76.2973 11.37C76.4773 11.0633 76.5673 10.69 76.5673 10.25C76.5673 9.81 76.4807 9.43667 76.3073 9.13C76.134 8.82333 75.9073 8.59667 75.6273 8.45C75.3473 8.29667 75.044 8.22 74.7173 8.22C74.384 8.22 74.0773 8.29667 73.7973 8.45C73.524 8.59667 73.304 8.82333 73.1373 9.13C72.9707 9.43667 72.8873 9.81 72.8873 10.25C72.8873 10.6967 72.9673 11.0733 73.1273 11.38C73.294 11.6867 73.514 11.9167 73.7873 12.07C74.0607 12.2167 74.3607 12.29 74.6873 12.29ZM78.3538 10.24C78.3538 9.68 78.4672 9.19 78.6938 8.77C78.9205 8.34333 79.2305 8.01333 79.6238 7.78C80.0238 7.54667 80.4672 7.43 80.9538 7.43C81.4338 7.43 81.8505 7.53333 82.2038 7.74C82.5572 7.94667 82.8205 8.20667 82.9938 8.52V7.52H83.9138V13H82.9938V11.98C82.8138 12.3 82.5438 12.5667 82.1838 12.78C81.8305 12.9867 81.4172 13.09 80.9438 13.09C80.4572 13.09 80.0172 12.97 79.6238 12.73C79.2305 12.49 78.9205 12.1533 78.6938 11.72C78.4672 11.2867 78.3538 10.7933 78.3538 10.24ZM82.9938 10.25C82.9938 9.83667 82.9105 9.47667 82.7438 9.17C82.5772 8.86333 82.3505 8.63 82.0638 8.47C81.7838 8.30333 81.4738 8.22 81.1338 8.22C80.7938 8.22 80.4838 8.3 80.2038 8.46C79.9238 8.62 79.7005 8.85333 79.5338 9.16C79.3672 9.46667 79.2838 9.82667 79.2838 10.24C79.2838 10.66 79.3672 11.0267 79.5338 11.34C79.7005 11.6467 79.9238 11.8833 80.2038 12.05C80.4838 12.21 80.7938 12.29 81.1338 12.29C81.4738 12.29 81.7838 12.21 82.0638 12.05C82.3505 11.8833 82.5772 11.6467 82.7438 11.34C82.9105 11.0267 82.9938 10.6633 82.9938 10.25ZM85.1116 10.24C85.1116 9.68 85.225 9.19 85.4516 8.77C85.6783 8.34333 85.9883 8.01333 86.3816 7.78C86.7816 7.54667 87.2283 7.43 87.7216 7.43C88.1483 7.43 88.545 7.53 88.9116 7.73C89.2783 7.92333 89.5583 8.18 89.7516 8.5V5.6H90.6716V13H89.7516V11.97C89.5716 12.2967 89.305 12.5667 88.9516 12.78C88.5983 12.9867 88.185 13.09 87.7116 13.09C87.225 13.09 86.7816 12.97 86.3816 12.73C85.9883 12.49 85.6783 12.1533 85.4516 11.72C85.225 11.2867 85.1116 10.7933 85.1116 10.24ZM89.7516 10.25C89.7516 9.83667 89.6683 9.47667 89.5016 9.17C89.335 8.86333 89.1083 8.63 88.8216 8.47C88.5416 8.30333 88.2316 8.22 87.8916 8.22C87.5516 8.22 87.2416 8.3 86.9616 8.46C86.6816 8.62 86.4583 8.85333 86.2916 9.16C86.125 9.46667 86.0416 9.82667 86.0416 10.24C86.0416 10.66 86.125 11.0267 86.2916 11.34C86.4583 11.6467 86.6816 11.8833 86.9616 12.05C87.2416 12.21 87.5516 12.29 87.8916 12.29C88.2316 12.29 88.5416 12.21 88.8216 12.05C89.1083 11.8833 89.335 11.6467 89.5016 11.34C89.6683 11.0267 89.7516 10.6633 89.7516 10.25ZM97.2655 13.09C96.7521 13.09 96.2855 12.9733 95.8655 12.74C95.4521 12.5067 95.1255 12.1767 94.8855 11.75C94.6521 11.3167 94.5355 10.8167 94.5355 10.25C94.5355 9.69 94.6555 9.19667 94.8955 8.77C95.1421 8.33667 95.4755 8.00667 95.8955 7.78C96.3155 7.54667 96.7855 7.43 97.3055 7.43C97.8255 7.43 98.2955 7.54667 98.7155 7.78C99.1355 8.00667 99.4655 8.33333 99.7055 8.76C99.9521 9.18667 100.075 9.68333 100.075 10.25C100.075 10.8167 99.9488 11.3167 99.6955 11.75C99.4488 12.1767 99.1121 12.5067 98.6855 12.74C98.2588 12.9733 97.7855 13.09 97.2655 13.09ZM97.2655 12.29C97.5921 12.29 97.8988 12.2133 98.1855 12.06C98.4721 11.9067 98.7021 11.6767 98.8755 11.37C99.0555 11.0633 99.1455 10.69 99.1455 10.25C99.1455 9.81 99.0588 9.43667 98.8855 9.13C98.7121 8.82333 98.4855 8.59667 98.2055 8.45C97.9255 8.29667 97.6221 8.22 97.2955 8.22C96.9621 8.22 96.6555 8.29667 96.3755 8.45C96.1021 8.59667 95.8821 8.82333 95.7155 9.13C95.5488 9.43667 95.4655 9.81 95.4655 10.25C95.4655 10.6967 95.5455 11.0733 95.7055 11.38C95.8721 11.6867 96.0921 11.9167 96.3655 12.07C96.6388 12.2167 96.9388 12.29 97.2655 12.29ZM103.942 7.42C104.609 7.42 105.149 7.62333 105.562 8.03C105.975 8.43 106.182 9.01 106.182 9.77V13H105.282V9.9C105.282 9.35333 105.145 8.93667 104.872 8.65C104.599 8.35667 104.225 8.21 103.752 8.21C103.272 8.21 102.889 8.36 102.602 8.66C102.322 8.96 102.182 9.39667 102.182 9.97V13H101.272V7.52H102.182V8.3C102.362 8.02 102.605 7.80333 102.912 7.65C103.225 7.49667 103.569 7.42 103.942 7.42ZM111.444 8.27V11.5C111.444 11.7667 111.501 11.9567 111.614 12.07C111.728 12.1767 111.924 12.23 112.204 12.23H112.874V13H112.054C111.548 13 111.168 12.8833 110.914 12.65C110.661 12.4167 110.534 12.0333 110.534 11.5V8.27H109.824V7.52H110.534V6.14H111.444V7.52H112.874V8.27H111.444ZM116.697 7.42C117.11 7.42 117.484 7.51 117.817 7.69C118.15 7.86333 118.41 8.12667 118.597 8.48C118.79 8.83333 118.887 9.26333 118.887 9.77V13H117.987V9.9C117.987 9.35333 117.85 8.93667 117.577 8.65C117.304 8.35667 116.93 8.21 116.457 8.21C115.977 8.21 115.594 8.36 115.307 8.66C115.027 8.96 114.887 9.39667 114.887 9.97V13H113.977V5.6H114.887V8.3C115.067 8.02 115.314 7.80333 115.627 7.65C115.947 7.49667 116.304 7.42 116.697 7.42ZM125.374 10.05C125.374 10.2233 125.364 10.4067 125.344 10.6H120.964C120.997 11.14 121.18 11.5633 121.514 11.87C121.854 12.17 122.264 12.32 122.744 12.32C123.137 12.32 123.464 12.23 123.724 12.05C123.99 11.8633 124.177 11.6167 124.284 11.31H125.264C125.117 11.8367 124.824 12.2667 124.384 12.6C123.944 12.9267 123.397 13.09 122.744 13.09C122.224 13.09 121.757 12.9733 121.344 12.74C120.937 12.5067 120.617 12.1767 120.384 11.75C120.15 11.3167 120.034 10.8167 120.034 10.25C120.034 9.68333 120.147 9.18667 120.374 8.76C120.6 8.33333 120.917 8.00667 121.324 7.78C121.737 7.54667 122.21 7.43 122.744 7.43C123.264 7.43 123.724 7.54333 124.124 7.77C124.524 7.99667 124.83 8.31 125.044 8.71C125.264 9.10333 125.374 9.55 125.374 10.05ZM124.434 9.86C124.434 9.51333 124.357 9.21667 124.204 8.97C124.05 8.71667 123.84 8.52667 123.574 8.4C123.314 8.26667 123.024 8.2 122.704 8.2C122.244 8.2 121.85 8.34667 121.524 8.64C121.204 8.93333 121.02 9.34 120.974 9.86H124.434Z" fill="white"/>
<path d="M26.8473 31.0371C25.5408 32.3036 24.1143 32.1036 22.7412 31.5037C21.288 30.8904 19.9548 30.8638 18.4217 31.5037C16.5019 32.3303 15.4887 32.0903 14.3422 31.0371C7.83638 24.3313 8.79626 14.1192 16.182 13.7459C17.9818 13.8393 19.2349 14.7325 20.2881 14.8125C21.8613 14.4925 23.3678 13.5726 25.0475 13.6926C27.0606 13.8526 28.5804 14.6525 29.5803 16.0923C25.4208 18.5853 26.4074 24.0646 30.2202 25.5978C29.4603 27.5975 28.4738 29.5839 26.834 31.0504L26.8473 31.0371ZM20.1548 13.666C19.9548 10.693 22.3679 8.23997 25.1409 8C25.5275 11.4396 22.0213 13.9992 20.1548 13.666Z" fill="white"/>
</svg>
