<svg width="24" height="24" viewBox="0 0 24 24" fill="none" xmlns="http://www.w3.org/2000/svg">
<path d="M12 2C17.25 2 20.75 3.375 20.75 5.125V7C21.4414 7 22 7.55859 22 8.25V10.75C22 11.4414 21.4414 12 20.75 12V18.25C20.75 18.9414 20.1914 19.5 19.5 19.5V20.75C19.5 21.4414 18.9414 22 18.25 22H17C16.3086 22 15.75 21.4414 15.75 20.75V19.5H8.25V20.75C8.25 21.4414 7.69141 22 7 22H5.75C5.05859 22 4.5 21.4414 4.5 20.75V19.5C3.80859 19.5 3.25 18.9414 3.25 18.25V12C2.55859 12 2 11.4414 2 10.75V8.25C2 7.55859 2.55859 7 3.25 7V5.125C3.25 3.375 6.75 2 12 2ZM5.75 8.25V12C5.75 12.6914 6.30859 13.25 7 13.25H11.375V7H7C6.30859 7 5.75 7.55859 5.75 8.25ZM12.625 13.25H17C17.6914 13.25 18.25 12.6914 18.25 12V8.25C18.25 7.55859 17.6914 7 17 7H12.625V13.25ZM6.375 17.625C6.70652 17.625 7.02446 17.4933 7.25888 17.2589C7.4933 17.0245 7.625 16.7065 7.625 16.375C7.625 16.0435 7.4933 15.7255 7.25888 15.4911C7.02446 15.2567 6.70652 15.125 6.375 15.125C6.04348 15.125 5.72554 15.2567 5.49112 15.4911C5.2567 15.7255 5.125 16.0435 5.125 16.375C5.125 16.7065 5.2567 17.0245 5.49112 17.2589C5.72554 17.4933 6.04348 17.625 6.375 17.625ZM17.625 17.625C17.9565 17.625 18.2745 17.4933 18.5089 17.2589C18.7433 17.0245 18.875 16.7065 18.875 16.375C18.875 16.0435 18.7433 15.7255 18.5089 15.4911C18.2745 15.2567 17.9565 15.125 17.625 15.125C17.2935 15.125 16.9755 15.2567 16.7411 15.4911C16.5067 15.7255 16.375 16.0435 16.375 16.375C16.375 16.7065 16.5067 17.0245 16.7411 17.2589C16.9755 17.4933 17.2935 17.625 17.625 17.625ZM15.75 5.125C15.75 4.78125 15.4688 4.5 15.125 4.5H8.875C8.53125 4.5 8.25 4.78125 8.25 5.125C8.25 5.46875 8.53125 5.75 8.875 5.75H15.125C15.4688 5.75 15.75 5.46875 15.75 5.125Z" fill="#45B2CA"/>
</svg>
