<svg width="24" height="24" viewBox="0 0 24 24" fill="none" xmlns="http://www.w3.org/2000/svg">
<path d="M10.2967 3.10962C10.2259 3.0394 10.1302 3 10.0304 3C9.93069 3 9.83498 3.0394 9.76414 3.10962L3.10669 9.76707C3.05527 9.8201 3.02051 9.88703 3.00668 9.95959C2.99286 10.0322 3.00058 10.1072 3.0289 10.1754C3.05722 10.2436 3.1049 10.3021 3.16604 10.3435C3.22719 10.3849 3.29913 10.4076 3.37299 10.4086H5.49127V20.6232C5.49167 20.723 5.53149 20.8186 5.60205 20.8892C5.67262 20.9598 5.76822 20.9996 5.86802 21H11.1637C11.2635 21.0004 11.3594 20.9614 11.4306 20.8913C11.5017 20.8213 11.5423 20.7261 11.5435 20.6263V9.38426C11.5435 9.2844 11.5828 9.18757 11.6539 9.11797L13.8131 6.62596L10.2967 3.10962ZM10.0304 17.9739H8.51738V16.4608H10.0304V17.9739ZM10.0304 14.9478H8.51738V13.4347H10.0304V14.9478ZM10.0304 10.4086V11.9217H8.51738V10.4086H10.0304ZM20.2436 5.86944H19.487C19.3867 5.86944 19.2905 5.90929 19.2196 5.98023C19.1486 6.05116 19.1088 6.14738 19.1088 6.2477V8.89555L17.1055 6.13573C17.0346 6.06551 16.9389 6.02611 16.8392 6.02611C16.7394 6.02611 16.6437 6.06551 16.5729 6.13573L13.1413 10.3057C13.087 10.3725 13.0571 10.4557 13.0565 10.5418V20.6187C13.0557 20.7185 13.0944 20.8146 13.1641 20.886C13.2338 20.9574 13.329 20.9984 13.4288 21H15.6983C15.7486 21.0002 15.7984 20.9905 15.845 20.9714C15.8915 20.9524 15.9338 20.9244 15.9695 20.8889C16.0052 20.8535 16.0335 20.8115 16.0529 20.7651C16.0724 20.7187 16.0825 20.669 16.0827 20.6187V17.9739H17.5957V20.6172C17.5957 20.7187 17.636 20.8161 17.7078 20.8879C17.7796 20.9597 17.877 21 17.9785 21H20.2481C20.3474 20.9988 20.4422 20.9586 20.5121 20.8882C20.582 20.8177 20.6214 20.7225 20.6218 20.6232V6.2477C20.6218 6.14738 20.582 6.05116 20.511 5.98023C20.4401 5.90929 20.3439 5.86944 20.2436 5.86944ZM16.0827 13.4347H14.5696V11.9217H16.0827V13.4347ZM19.1088 13.4347H17.5957V11.9217H19.1088V13.4347ZM16.0827 16.4608H14.5696V14.9478H16.0827V16.4608ZM19.1088 16.4608H17.5957V14.9478H19.1088V16.4608Z" fill="white"/>
</svg>
