<svg width="25" height="24" viewBox="0 0 25 24" fill="none" xmlns="http://www.w3.org/2000/svg">
<path d="M12.1602 11C12.9886 11 13.6602 10.3284 13.6602 9.5C13.6602 8.67157 12.9886 8 12.1602 8C11.3317 8 10.6602 8.67157 10.6602 9.5C10.6602 10.3284 11.3317 11 12.1602 11Z" fill="black"/>
<path d="M12.1602 2C10.0522 1.99989 8.02941 2.83176 6.5314 4.31479C5.03339 5.79782 4.18124 7.81216 4.16016 9.92C4.16016 15.4 11.2102 21.5 11.5102 21.76C11.6913 21.9149 11.9218 22.0001 12.1602 22.0001C12.3985 22.0001 12.629 21.9149 12.8102 21.76C13.1602 21.5 20.1602 15.4 20.1602 9.92C20.1391 7.81216 19.2869 5.79782 17.7889 4.31479C16.2909 2.83176 14.2681 1.99989 12.1602 2ZM12.1602 13C11.4679 13 10.7912 12.7947 10.2157 12.4101C9.64009 12.0256 9.19148 11.4789 8.92658 10.8394C8.66167 10.1999 8.59236 9.49612 8.72741 8.81718C8.86246 8.13825 9.1958 7.51461 9.68528 7.02513C10.1748 6.53564 10.7984 6.2023 11.4773 6.06725C12.1563 5.9322 12.86 6.00152 13.4995 6.26642C14.1391 6.53133 14.6857 6.97993 15.0703 7.5555C15.4549 8.13108 15.6602 8.80777 15.6602 9.5C15.6602 10.4283 15.2914 11.3185 14.635 11.9749C13.9787 12.6313 13.0884 13 12.1602 13Z" fill="black"/>
</svg>
