<svg width="14" height="14" viewBox="0 0 14 14" fill="none" xmlns="http://www.w3.org/2000/svg">
<path d="M6.52182 1.48229C6.56097 1.3878 6.62725 1.30705 6.71229 1.25023C6.79732 1.19341 6.8973 1.16309 6.99957 1.16309C7.10184 1.16309 7.20182 1.19341 7.28686 1.25023C7.3719 1.30705 7.43818 1.3878 7.47732 1.48229L8.8642 4.81604C8.87949 4.85321 8.90473 4.88546 8.93714 4.90923C8.96956 4.933 9.0079 4.94738 9.04795 4.95079L12.6477 5.23954C12.7496 5.24758 12.8468 5.28563 12.9271 5.34888C13.0074 5.41214 13.0671 5.49777 13.0987 5.59495C13.1304 5.69213 13.1325 5.79651 13.1049 5.8949C13.0772 5.9933 13.0211 6.0813 12.9434 6.14779L10.2003 8.49629C10.17 8.52245 10.1474 8.55644 10.1351 8.59455C10.1227 8.63266 10.1211 8.67343 10.1303 8.71241L10.9677 12.2255C10.9913 12.3249 10.985 12.429 10.9495 12.5247C10.914 12.6205 10.851 12.7036 10.7684 12.7636C10.6857 12.8235 10.5872 12.8577 10.4852 12.8618C10.3832 12.8659 10.2822 12.8396 10.1951 12.7864L7.11332 10.9052C7.07905 10.8843 7.0397 10.8733 6.99957 10.8733C6.95945 10.8733 6.9201 10.8843 6.88582 10.9052L3.80407 12.7864C3.71693 12.8396 3.61599 12.8659 3.51396 12.8618C3.41194 12.8577 3.3134 12.8235 3.23078 12.7636C3.14815 12.7036 3.08513 12.6205 3.04965 12.5247C3.01418 12.429 3.00785 12.3249 3.03145 12.2255L3.86882 8.71241C3.87806 8.67343 3.87642 8.63266 3.86408 8.59455C3.85173 8.55644 3.82916 8.52245 3.79882 8.49629L1.0557 6.14779C0.97808 6.0813 0.921905 5.9933 0.894267 5.8949C0.866629 5.79651 0.868767 5.69213 0.900412 5.59495C0.932057 5.49777 0.991789 5.41214 1.07206 5.34888C1.15234 5.28563 1.24956 5.24758 1.35145 5.23954L4.95032 4.95079C4.99043 4.94761 5.02889 4.93343 5.06146 4.90981C5.09403 4.88619 5.11946 4.85405 5.13495 4.81691L6.52182 1.48229Z" fill="black"/>
</svg>
