<svg width="14" height="14" viewBox="0 0 14 14" fill="none" xmlns="http://www.w3.org/2000/svg">
<path d="M4.66602 4.66667V4.08333C4.66602 3.46449 4.91185 2.871 5.34943 2.43342C5.78702 1.99583 6.38051 1.75 6.99935 1.75C7.61819 1.75 8.21168 1.99583 8.64926 2.43342C9.08685 2.871 9.33268 3.46449 9.33268 4.08333V4.66667" stroke="black" stroke-width="2" stroke-linecap="round"/>
<path fill-rule="evenodd" clip-rule="evenodd" d="M2.09183 4.42484C1.75 4.76667 1.75 5.31617 1.75 6.41634V8.16634C1.75 10.3661 1.75 11.4663 2.43367 12.1493C3.11675 12.833 4.21692 12.833 6.41667 12.833H7.58333C9.78308 12.833 10.8832 12.833 11.5663 12.1493C12.25 11.4663 12.25 10.3661 12.25 8.16634V6.41634C12.25 5.31617 12.25 4.76667 11.9082 4.42484C11.5663 4.08301 11.0168 4.08301 9.91667 4.08301H4.08333C2.98317 4.08301 2.43367 4.08301 2.09183 4.42484ZM5.83333 6.99967C5.83333 6.84496 5.77187 6.69659 5.66248 6.5872C5.55308 6.4778 5.40471 6.41634 5.25 6.41634C5.09529 6.41634 4.94692 6.4778 4.83752 6.5872C4.72812 6.69659 4.66667 6.84496 4.66667 6.99967V8.16634C4.66667 8.32105 4.72812 8.46942 4.83752 8.57882C4.94692 8.68822 5.09529 8.74967 5.25 8.74967C5.40471 8.74967 5.55308 8.68822 5.66248 8.57882C5.77187 8.46942 5.83333 8.32105 5.83333 8.16634V6.99967ZM9.33333 6.99967C9.33333 6.84496 9.27187 6.69659 9.16248 6.5872C9.05308 6.4778 8.90471 6.41634 8.75 6.41634C8.59529 6.41634 8.44692 6.4778 8.33752 6.5872C8.22812 6.69659 8.16667 6.84496 8.16667 6.99967V8.16634C8.16667 8.32105 8.22812 8.46942 8.33752 8.57882C8.44692 8.68822 8.59529 8.74967 8.75 8.74967C8.90471 8.74967 9.05308 8.68822 9.16248 8.57882C9.27187 8.46942 9.33333 8.32105 9.33333 8.16634V6.99967Z" fill="black"/>
</svg>
