<svg width="24" height="24" viewBox="0 0 24 24" fill="none" xmlns="http://www.w3.org/2000/svg">
<g clip-path="url(#clip0_206_6946)">
<path fill-rule="evenodd" clip-rule="evenodd" d="M0 18.857C0 20.2764 1.14857 21.4284 2.568 21.4284H21.432C22.8514 21.4284 24 20.2764 24 18.857V15.3701C24.0002 15.1818 23.9383 14.9987 23.824 14.849C23.7096 14.6993 23.5492 14.5915 23.3674 14.5421C22.8096 14.3902 22.3171 14.059 21.9661 13.5996C21.615 13.1402 21.4249 12.5781 21.4249 11.9999C21.4249 11.4217 21.615 10.8595 21.9661 10.4001C22.3171 9.94069 22.8096 9.60949 23.3674 9.45758C23.5492 9.40823 23.7096 9.30039 23.824 9.15073C23.9383 9.00107 24.0002 8.81791 24 8.62957V5.14272C24 3.72329 22.8514 2.57129 21.432 2.57129H2.568C1.14857 2.57129 0 3.72329 0 5.14272V8.62272C0.000227924 8.81196 0.0630764 8.9958 0.178744 9.14558C0.294411 9.29536 0.456393 9.40265 0.639429 9.45072C1.20321 9.59815 1.70222 9.92832 2.05836 10.3896C2.41451 10.8508 2.6077 11.4171 2.6077 11.9999C2.6077 12.5826 2.41451 13.1489 2.05836 13.6102C1.70222 14.0714 1.20321 14.4016 0.639429 14.549C0.456393 14.5971 0.294411 14.7044 0.178744 14.8541C0.0630764 15.0039 0.000227924 15.1878 0 15.377L0 18.857ZM8.50629 17.0433L17.0777 8.47186C17.269 8.26918 17.3738 7.99994 17.3699 7.72127C17.3659 7.4426 17.2535 7.17644 17.0566 6.97926C16.8596 6.78208 16.5936 6.6694 16.3149 6.66514C16.0363 6.66088 15.7669 6.76537 15.564 6.95643L6.99257 15.5279C6.88821 15.6261 6.80462 15.7444 6.74678 15.8755C6.68893 16.0067 6.65799 16.1481 6.6558 16.2915C6.65361 16.4348 6.68021 16.5772 6.73401 16.71C6.78782 16.8429 6.86775 16.9636 6.96906 17.0651C7.07037 17.1665 7.19101 17.2465 7.32383 17.3005C7.45664 17.3545 7.59893 17.3812 7.74228 17.3792C7.88562 17.3772 8.0271 17.3464 8.15833 17.2887C8.28957 17.231 8.40789 17.1475 8.50629 17.0433ZM6.89314 8.57129C6.89314 8.11663 7.07375 7.6806 7.39525 7.35911C7.71674 7.03762 8.15277 6.857 8.60743 6.857C9.06209 6.857 9.49812 7.03762 9.81961 7.35911C10.1411 7.6806 10.3217 8.11663 10.3217 8.57129C10.3217 9.02595 10.1411 9.46198 9.81961 9.78347C9.49812 10.105 9.06209 10.2856 8.60743 10.2856C8.15277 10.2856 7.71674 10.105 7.39525 9.78347C7.07375 9.46198 6.89314 9.02595 6.89314 8.57129ZM13.7503 15.4284C13.7503 14.9738 13.9309 14.5377 14.2524 14.2162C14.5739 13.8948 15.0099 13.7141 15.4646 13.7141C15.9192 13.7141 16.3553 13.8948 16.6768 14.2162C16.9982 14.5377 17.1789 14.9738 17.1789 15.4284C17.1789 15.8831 16.9982 16.3191 16.6768 16.6406C16.3553 16.9621 15.9192 17.1427 15.4646 17.1427C15.0099 17.1427 14.5739 16.9621 14.2524 16.6406C13.9309 16.3191 13.7503 15.8831 13.7503 15.4284Z" fill="#45B2CA"/>
</g>
<defs>
<clipPath id="clip0_206_6946">
<rect width="24" height="24" fill="white"/>
</clipPath>
</defs>
</svg>
