<svg width="24" height="24" viewBox="0 0 24 24" fill="none" xmlns="http://www.w3.org/2000/svg">
<path d="M11.1812 2.54135C11.2483 2.37937 11.362 2.24093 11.5078 2.14353C11.6535 2.04613 11.8249 1.99414 12.0002 1.99414C12.1756 1.99414 12.347 2.04613 12.4927 2.14353C12.6385 2.24093 12.7521 2.37937 12.8192 2.54135L15.1967 8.25635C15.223 8.32007 15.2662 8.37535 15.3218 8.4161C15.3774 8.45685 15.4431 8.4815 15.5117 8.48735L21.6827 8.98235C21.8574 8.99613 22.0241 9.06136 22.1617 9.1698C22.2993 9.27823 22.4017 9.42502 22.4559 9.59162C22.5102 9.75821 22.5139 9.93715 22.4665 10.1058C22.4191 10.2745 22.3228 10.4254 22.1897 10.5393L17.4872 14.5653C17.4352 14.6102 17.3965 14.6685 17.3754 14.7338C17.3542 14.7991 17.3514 14.869 17.3672 14.9358L18.8027 20.9583C18.8432 21.1286 18.8323 21.3071 18.7715 21.4712C18.7107 21.6354 18.6027 21.7778 18.461 21.8807C18.3194 21.9835 18.1505 22.0421 17.9756 22.049C17.8007 22.056 17.6276 22.0111 17.4782 21.9198L12.1952 18.6948C12.1365 18.6591 12.069 18.6402 12.0002 18.6402C11.9315 18.6402 11.864 18.6591 11.8052 18.6948L6.52224 21.9198C6.37286 22.0111 6.19981 22.056 6.02491 22.049C5.85002 22.0421 5.6811 21.9835 5.53945 21.8807C5.3978 21.7778 5.28977 21.6354 5.22896 21.4712C5.16815 21.3071 5.15729 21.1286 5.19774 20.9583L6.63324 14.9358C6.64909 14.869 6.64627 14.7991 6.62511 14.7338C6.60395 14.6685 6.56525 14.6102 6.51324 14.5653L1.81074 10.5393C1.67768 10.4254 1.58138 10.2745 1.53401 10.1058C1.48663 9.93715 1.49029 9.75821 1.54454 9.59162C1.59879 9.42502 1.70119 9.27823 1.8388 9.1698C1.97642 9.06136 2.14308 8.99613 2.31774 8.98235L8.48724 8.48735C8.556 8.4819 8.62193 8.45759 8.67777 8.4171C8.73361 8.37661 8.7772 8.32151 8.80374 8.25785L11.1812 2.54135Z" fill="white"/>
</svg>
