<svg width="24" height="24" viewBox="0 0 24 24" fill="none" xmlns="http://www.w3.org/2000/svg">
<path d="M21.3453 20.537C21.2978 20.6724 21.2094 20.7896 21.0924 20.8726C20.9753 20.9555 20.8354 21 20.692 21H2.69282C2.54928 21.0001 2.40927 20.9556 2.29214 20.8726C2.17501 20.7897 2.08657 20.6724 2.03904 20.5369C1.99152 20.4015 1.98727 20.2546 2.02688 20.1167C2.0665 19.9787 2.14801 19.8565 2.26014 19.7669C2.4012 19.6544 5.59431 17.1484 10.7656 16.8723C10.4966 15.8003 10.4005 14.6923 10.4809 13.5901C10.6306 11.7114 11.425 9.20883 14.1976 7.31805C13.7725 7.2148 13.337 7.16051 12.8995 7.15623H12.755C11.1109 7.20988 10.0777 8.16955 9.59653 10.0915C9.55902 10.2415 9.47234 10.3747 9.35032 10.4697C9.2283 10.5648 9.07796 10.6162 8.92329 10.6159C8.86494 10.6166 8.80675 10.6096 8.75022 10.5951C8.57214 10.5506 8.41905 10.4371 8.3246 10.2797C8.23016 10.1223 8.2021 9.93382 8.24659 9.75572C9.04703 6.55828 11.1117 5.82533 12.7031 5.77514C13.3351 5.76131 13.9662 5.83262 14.5792 5.98715C14.2486 5.43939 13.764 4.86826 13.0899 4.58097C12.2246 4.21406 11.1715 4.37415 9.94786 5.05777C9.86831 5.10209 9.78081 5.13031 9.69036 5.14081C9.59991 5.15132 9.50827 5.1439 9.42069 5.11899C9.3331 5.09408 9.25128 5.05217 9.17989 4.99564C9.10851 4.9391 9.04895 4.86906 9.00463 4.78952C8.96031 4.70997 8.9321 4.62247 8.92159 4.53202C8.91109 4.44157 8.9185 4.34993 8.94341 4.26235C8.96832 4.17476 9.01024 4.09294 9.06677 4.02155C9.1233 3.95017 9.19334 3.89061 9.27289 3.84629C10.8945 2.94201 12.3639 2.76115 13.6411 3.30978C14.722 3.7736 15.435 4.67529 15.8807 5.47314C16.4146 4.63895 17.0809 4.07388 17.8173 3.83418C18.8436 3.49929 19.9495 3.77187 21.1056 4.64501C21.2456 4.75787 21.3362 4.92078 21.3582 5.09927C21.3802 5.27775 21.3319 5.45779 21.2235 5.60128C21.1151 5.74477 20.9551 5.84045 20.7774 5.86805C20.5997 5.89566 20.4182 5.85303 20.2714 5.74918C19.5004 5.16681 18.8202 4.96518 18.2517 5.1495C17.62 5.35286 17.138 6.01484 16.8343 6.58684C17.4587 6.7126 18.0596 6.93538 18.6151 7.24709C19.8794 7.96966 21.3842 9.50131 21.3842 12.6936C21.3842 12.8772 21.3113 13.0533 21.1815 13.1831C21.0517 13.3129 20.8756 13.3858 20.692 13.3858C20.5084 13.3858 20.3323 13.3129 20.2025 13.1831C20.0726 13.0533 19.9997 12.8772 19.9997 12.6936C19.9997 10.6635 19.3022 9.23219 17.9229 8.45338C17.7622 8.36229 17.5961 8.28136 17.4253 8.21109C17.8612 9.09722 18.014 10.096 17.8632 11.0719C17.7544 11.794 17.493 12.4845 17.0965 13.0977C16.9903 13.2465 16.8297 13.3473 16.6495 13.3781C16.4693 13.4089 16.2843 13.3672 16.1347 13.2621C15.9852 13.157 15.8833 12.9971 15.8513 12.8171C15.8192 12.6371 15.8596 12.4518 15.9637 12.3016C16.0286 12.2072 17.3768 10.1919 15.6816 8.02936C13.3452 9.34555 12.0567 11.2528 11.8603 13.7052C11.7838 14.7676 11.896 15.8352 12.1917 16.8585C17.6131 17.0151 20.9767 19.6561 21.122 19.7712C21.2337 19.8602 21.3151 19.9816 21.3551 20.1187C21.395 20.2558 21.3916 20.402 21.3453 20.537ZM5.11578 15.4618C5.595 15.4618 6.06345 15.3197 6.46191 15.0535C6.86036 14.7872 7.17092 14.4088 7.3543 13.9661C7.53769 13.5233 7.58568 13.0362 7.49218 12.5661C7.39869 12.0961 7.16793 11.6644 6.82907 11.3255C6.49021 10.9867 6.05848 10.7559 5.58848 10.6624C5.11847 10.5689 4.63129 10.6169 4.18855 10.8003C3.74581 10.9837 3.3674 11.2943 3.10116 11.6927C2.83492 12.0912 2.69282 12.5596 2.69282 13.0388C2.69282 13.6814 2.94809 14.2977 3.40249 14.7521C3.85688 15.2065 4.47317 15.4618 5.11578 15.4618Z" fill="#696B6B"/>
</svg>
