<svg width="14" height="14" viewBox="0 0 14 14" fill="none" xmlns="http://www.w3.org/2000/svg">
<path fill-rule="evenodd" clip-rule="evenodd" d="M9.62541 1.3125C9.34804 1.31241 9.07402 1.37318 8.8227 1.49053C8.57137 1.60788 8.34886 1.77894 8.17085 1.99166C7.99284 2.20438 7.86368 2.45357 7.79247 2.72164C7.72127 2.98972 7.70975 3.27015 7.75874 3.54317L4.99957 5.47517C4.98578 5.48471 4.97253 5.49503 4.95991 5.50608C4.67999 5.28726 4.34421 5.15151 3.99086 5.1143C3.63752 5.07709 3.28083 5.13992 2.96147 5.29563C2.64211 5.45134 2.37293 5.69366 2.18463 5.99496C1.99633 6.29626 1.89648 6.64441 1.89648 6.99971C1.89648 7.35501 1.99633 7.70316 2.18463 8.00446C2.37293 8.30575 2.64211 8.54807 2.96147 8.70378C3.28083 8.85949 3.63752 8.92233 3.99086 8.88512C4.34421 8.84791 4.67999 8.71215 4.95991 8.49333C4.97252 8.50459 4.98576 8.5151 4.99957 8.52483L7.75874 10.4568C7.67683 10.9134 7.76518 11.3842 8.00705 11.7801C8.24893 12.1759 8.62755 12.4693 9.07123 12.6048C9.51491 12.7403 9.99285 12.7083 10.4146 12.5151C10.8363 12.3218 11.1725 11.9806 11.3596 11.5561C11.5467 11.1316 11.5716 10.6533 11.4297 10.2116C11.2878 9.76998 10.9889 9.39568 10.5896 9.1596C10.1902 8.92353 9.71821 8.84206 9.26285 8.93062C8.80749 9.01918 8.4004 9.27163 8.11866 9.64017L5.50591 7.81142C5.62257 7.56525 5.68791 7.2905 5.68791 7C5.68791 6.7095 5.62257 6.43417 5.50591 6.18858L8.11924 4.35925C8.315 4.61549 8.57288 4.81756 8.8685 4.94636C9.16412 5.07516 9.4877 5.12643 9.80866 5.09532C10.1296 5.06421 10.4373 4.95175 10.7027 4.76857C10.9681 4.58539 11.1824 4.33755 11.3253 4.04849C11.4682 3.75942 11.535 3.43868 11.5194 3.1166C11.5038 2.79452 11.4063 2.48174 11.2361 2.20784C11.0659 1.93394 10.8287 1.70797 10.5469 1.5513C10.265 1.39463 9.94787 1.31244 9.62541 1.3125ZM8.60458 3.20833C8.60458 2.93759 8.71213 2.67794 8.90357 2.4865C9.09501 2.29505 9.35467 2.1875 9.62541 2.1875C9.89615 2.1875 10.1558 2.29505 10.3472 2.4865C10.5387 2.67794 10.6462 2.93759 10.6462 3.20833C10.6462 3.47908 10.5387 3.73873 10.3472 3.93017C10.1558 4.12161 9.89615 4.22917 9.62541 4.22917C9.35467 4.22917 9.09501 4.12161 8.90357 3.93017C8.71213 3.73873 8.60458 3.47908 8.60458 3.20833ZM3.79208 5.97917C3.52133 5.97917 3.26168 6.08672 3.07024 6.27816C2.87879 6.46961 2.77124 6.72926 2.77124 7C2.77124 7.27074 2.87879 7.5304 3.07024 7.72184C3.26168 7.91328 3.52133 8.02083 3.79208 8.02083C4.06282 8.02083 4.32247 7.91328 4.51391 7.72184C4.70536 7.5304 4.81291 7.27074 4.81291 7C4.81291 6.72926 4.70536 6.46961 4.51391 6.27816C4.32247 6.08672 4.06282 5.97917 3.79208 5.97917ZM9.62541 9.77083C9.35467 9.77083 9.09501 9.87839 8.90357 10.0698C8.71213 10.2613 8.60458 10.5209 8.60458 10.7917C8.60458 11.0624 8.71213 11.3221 8.90357 11.5135C9.09501 11.7049 9.35467 11.8125 9.62541 11.8125C9.89615 11.8125 10.1558 11.7049 10.3472 11.5135C10.5387 11.3221 10.6462 11.0624 10.6462 10.7917C10.6462 10.5209 10.5387 10.2613 10.3472 10.0698C10.1558 9.87839 9.89615 9.77083 9.62541 9.77083Z" fill="white"/>
</svg>
