<svg width="12" height="12" viewBox="0 0 12 12" fill="none" xmlns="http://www.w3.org/2000/svg">
<path d="M5 4H10M2 8H7" stroke="#FCA907" stroke-width="0.6" stroke-linecap="round"/>
<path d="M2 4C2 4.82843 2.67157 5.5 3.5 5.5C4.32843 5.5 5 4.82843 5 4C5 3.17157 4.32843 2.5 3.5 2.5C2.67157 2.5 2 3.17157 2 4Z" stroke="#FCA907" stroke-width="0.6" stroke-linecap="round"/>
<path d="M7 8C7 8.82843 7.67157 9.5 8.5 9.5C9.32843 9.5 10 8.82843 10 8C10 7.17157 9.32843 6.5 8.5 6.5C7.67157 6.5 7 7.17157 7 8Z" stroke="#FCA907" stroke-width="0.6" stroke-linecap="round"/>
</svg>
