<svg width="17" height="16" viewBox="0 0 17 16" fill="none" xmlns="http://www.w3.org/2000/svg">
<circle cx="10" cy="9" r="1" fill="#4C5CF0"/>
<path d="M14.9378 14.0001L12.0526 11.1048M12.0526 11.1048C12.5461 10.6095 12.9376 10.0216 13.2047 9.3745C13.4718 8.72742 13.6093 8.03387 13.6093 7.33347C13.6093 6.63307 13.4718 5.93953 13.2047 5.29244C12.9376 4.64535 12.5461 4.0574 12.0526 3.56214C11.559 3.06688 10.9731 2.67402 10.3283 2.40599C9.68347 2.13795 8.99234 2 8.29438 2C7.59642 2 6.90529 2.13795 6.26046 2.40599C5.61563 2.67402 5.02972 3.06688 4.53619 3.56214C3.53945 4.56236 2.97949 5.91895 2.97949 7.33347C2.97949 8.748 3.53945 10.1046 4.53619 11.1048C5.53292 12.105 6.88478 12.6669 8.29438 12.6669C9.70398 12.6669 11.0558 12.105 12.0526 11.1048Z" stroke="#696B6B" stroke-linecap="round" stroke-linejoin="round"/>
</svg>
