<svg width="24" height="24" viewBox="0 0 24 24" fill="none" xmlns="http://www.w3.org/2000/svg">
<path d="M17.7054 5.0025C16.0841 3.70526 14.0692 2.99898 11.9928 3C9.54513 3 7.25897 3.94299 5.54977 5.6554C3.89803 7.31237 2.99281 9.50009 3.00004 11.814C3.0001 13.5104 3.49814 15.1696 4.43241 16.5856L4.44004 16.5964C4.45129 16.6129 4.46294 16.6294 4.4746 16.6454C4.48625 16.6615 4.50071 16.6824 4.50393 16.6876L4.51277 16.7037C4.55817 16.7841 4.59312 16.8821 4.56219 16.9809L3.8221 19.6592C3.79243 19.7588 3.77621 19.8619 3.77388 19.9658C3.77335 20.2391 3.8812 20.5014 4.07379 20.6953C4.26638 20.8891 4.52798 20.9987 4.80125 21C4.94565 20.9953 5.08796 20.9641 5.22111 20.908L7.93277 19.9292L7.96692 19.916C8.04068 19.885 8.11995 19.8693 8.19995 19.8698C8.27372 19.8699 8.34683 19.8836 8.41571 19.91C8.4808 19.9353 9.07183 20.1615 9.6954 20.3358C10.2137 20.4805 11.2921 20.6975 12.1371 20.6975C14.5337 20.6975 16.7716 19.7693 18.4383 18.0834C20.0904 16.4104 21 14.1865 21 11.8188C21.0003 11.211 20.9359 10.6049 20.808 10.0108C20.3925 8.05728 19.2908 6.27817 17.7054 5.0025ZM8.1429 13.2857C7.88861 13.2857 7.64003 13.2103 7.4286 13.069C7.21716 12.9278 7.05237 12.727 6.95505 12.492C6.85774 12.2571 6.83228 11.9986 6.88189 11.7492C6.9315 11.4998 7.05395 11.2707 7.23376 11.0909C7.41357 10.9111 7.64267 10.7886 7.89207 10.739C8.14147 10.6894 8.39999 10.7148 8.63492 10.8122C8.86985 10.9095 9.07066 11.0743 9.21193 11.2857C9.35321 11.4971 9.42861 11.7457 9.42861 12C9.42861 12.341 9.29315 12.668 9.05204 12.9091C8.81092 13.1503 8.48389 13.2857 8.1429 13.2857ZM12 13.2857C11.7458 13.2857 11.4972 13.2103 11.2857 13.069C11.0743 12.9278 10.9095 12.727 10.8122 12.492C10.7149 12.2571 10.6894 11.9986 10.739 11.7492C10.7886 11.4998 10.9111 11.2707 11.0909 11.0909C11.2707 10.9111 11.4998 10.7886 11.7492 10.739C11.9986 10.6894 12.2571 10.7148 12.4921 10.8122C12.727 10.9095 12.9278 11.0743 13.0691 11.2857C13.2104 11.4971 13.2858 11.7457 13.2858 12C13.2858 12.341 13.1503 12.668 12.9092 12.9091C12.6681 13.1503 12.341 13.2857 12 13.2857ZM15.8572 13.2857C15.6029 13.2857 15.3543 13.2103 15.1429 13.069C14.9314 12.9278 14.7667 12.727 14.6693 12.492C14.572 12.2571 14.5466 11.9986 14.5962 11.7492C14.6458 11.4998 14.7682 11.2707 14.948 11.0909C15.1279 10.9111 15.3569 10.7886 15.6064 10.739C15.8558 10.6894 16.1143 10.7148 16.3492 10.8122C16.5841 10.9095 16.7849 11.0743 16.9262 11.2857C17.0675 11.4971 17.1429 11.7457 17.1429 12C17.1429 12.341 17.0074 12.668 16.7663 12.9091C16.5252 13.1503 16.1982 13.2857 15.8572 13.2857Z" fill="white"/>
</svg>
