<svg width="24" height="24" viewBox="0 0 24 24" fill="none" xmlns="http://www.w3.org/2000/svg">
<path d="M14.2898 12.4756L12.1569 11.6983L9.59464 18.7287H3.13565C2.50749 18.7287 2 19.2362 2 19.8644C2 20.4925 2.50749 21 3.13565 21H21.306C21.9341 21 22.4416 20.4925 22.4416 19.8644C22.4416 19.2362 21.9341 18.7287 21.306 18.7287H12.0114L14.2863 12.4756H14.2898ZM18.5875 12.4685L18.4704 12.7914L20.873 13.6644C21.5154 13.8987 22.2216 13.5154 22.2784 12.834C22.5091 10.0481 21.4302 7.31546 19.4109 5.43454C19.4819 5.71845 19.5244 6.01301 19.5315 6.31467L19.5386 6.5276C19.6025 8.55047 19.2796 10.5662 18.5875 12.4685ZM18.3959 6.34661C18.3569 5.12579 17.5974 4.04692 16.4653 3.59976C16.4334 3.58557 16.3979 3.57492 16.3659 3.56073C15.1948 3.1455 13.8888 3.47555 13.0619 4.40536L12.92 4.56506C11.6672 5.96333 10.6948 7.59227 10.0489 9.35962L9.93178 9.68257L17.4022 12.401L17.5193 12.0781C18.1617 10.3107 18.4633 8.44046 18.403 6.55954L18.3959 6.34661ZM5.80442 6.83636C5.41049 7.39353 5.70505 8.14235 6.3474 8.37658L8.86711 9.29219L8.98423 8.96924C9.67626 7.06703 10.7267 5.31388 12.0753 3.8056L12.2173 3.6459C12.4373 3.40103 12.6822 3.18454 12.9448 3C10.1199 3.08872 7.45465 4.49763 5.80442 6.83281V6.83636Z" fill="white"/>
</svg>
