<svg width="18" height="18" viewBox="0 0 18 18" fill="none" xmlns="http://www.w3.org/2000/svg">
<path fill-rule="evenodd" clip-rule="evenodd" d="M2.7002 2.6998C2.7002 2.46111 2.79502 2.23219 2.9638 2.06341C3.13258 1.89463 3.3615 1.7998 3.6002 1.7998H14.4002C14.6389 1.7998 14.8678 1.89463 15.0366 2.06341C15.2054 2.23219 15.3002 2.46111 15.3002 2.6998V5.3998C15.3001 5.63848 15.2053 5.86736 15.0365 6.0361L10.8002 10.2724V13.4998C10.8001 13.7385 10.7053 13.9674 10.5365 14.1361L8.7365 15.9361C8.61063 16.0619 8.45028 16.1476 8.27572 16.1823C8.10117 16.217 7.92024 16.1992 7.75581 16.1311C7.59138 16.063 7.45083 15.9477 7.35193 15.7997C7.25304 15.6517 7.20023 15.4778 7.2002 15.2998V10.2724L2.9639 6.0361C2.7951 5.86736 2.70025 5.63848 2.7002 5.3998V2.6998Z" fill="#4C5CF0"/>
</svg>
