<svg width="14" height="14" viewBox="0 0 14 14" fill="none" xmlns="http://www.w3.org/2000/svg">
<g clip-path="url(#clip0_206_12066)">
<path d="M6.39876 4.82109C6.27655 4.9051 6.17858 5.01977 6.11467 5.15359C6.06045 5.25313 5.96972 5.32774 5.86157 5.36171C5.75343 5.39568 5.63633 5.38635 5.53493 5.33569C5.43353 5.28503 5.35575 5.19699 5.31798 5.09012C5.2802 4.98324 5.28538 4.86588 5.33242 4.76275C5.44909 4.52825 5.63167 4.28092 5.91401 4.09309C6.19867 3.90234 6.55859 3.7915 6.99959 3.7915C7.38342 3.7915 7.79817 3.90525 8.12776 4.15259C8.3115 4.28691 8.46051 4.46317 8.56238 4.6667C8.66425 4.87024 8.71603 5.09516 8.71342 5.32275C8.71342 5.92534 8.41417 6.32609 8.11434 6.61484C8.00351 6.72159 7.88159 6.82367 7.77659 6.91117L7.69084 6.98292C7.60087 7.05651 7.51608 7.13623 7.43709 7.2215V8.02067C7.43709 8.1367 7.391 8.24798 7.30895 8.33003C7.2269 8.41208 7.11562 8.45817 6.99959 8.45817C6.88356 8.45817 6.77228 8.41208 6.69023 8.33003C6.60818 8.24798 6.56209 8.1367 6.56209 8.02067V7.16142C6.56209 7.02317 6.60117 6.86742 6.70617 6.73209C6.83451 6.56875 6.98967 6.4305 7.12501 6.31559L7.23176 6.22634L7.23234 6.22575C7.33267 6.14234 7.42134 6.06825 7.50651 5.98542C7.72117 5.77834 7.83842 5.59109 7.83842 5.32275C7.841 5.23102 7.82083 5.14008 7.7797 5.05804C7.73858 4.976 7.67779 4.90542 7.60276 4.85259C7.44642 4.73534 7.22359 4.6665 6.99959 4.6665C6.71142 4.6665 6.52476 4.73709 6.39876 4.82109ZM7.58292 9.9165C7.58292 10.0712 7.52146 10.2196 7.41207 10.329C7.30267 10.4384 7.1543 10.4998 6.99959 10.4998C6.84488 10.4998 6.69651 10.4384 6.58711 10.329C6.47771 10.2196 6.41626 10.0712 6.41626 9.9165C6.41626 9.76179 6.47771 9.61342 6.58711 9.50402C6.69651 9.39463 6.84488 9.33317 6.99959 9.33317C7.1543 9.33317 7.30267 9.39463 7.41207 9.50402C7.52146 9.61342 7.58292 9.76179 7.58292 9.9165Z" fill="white"/>
<path d="M6.99967 0.583496C10.5434 0.583496 13.4163 3.45641 13.4163 7.00016C13.4163 10.5439 10.5434 13.4168 6.99967 13.4168C3.45592 13.4168 0.583008 10.5439 0.583008 7.00016C0.583008 3.45641 3.45592 0.583496 6.99967 0.583496ZM1.45801 7.00016C1.45801 8.4699 2.04186 9.87945 3.08112 10.9187C4.12039 11.958 5.52993 12.5418 6.99967 12.5418C8.46942 12.5418 9.87896 11.958 10.9182 10.9187C11.9575 9.87945 12.5413 8.4699 12.5413 7.00016C12.5413 5.53042 11.9575 4.12088 10.9182 3.08161C9.87896 2.04235 8.46942 1.4585 6.99967 1.4585C5.52993 1.4585 4.12039 2.04235 3.08112 3.08161C2.04186 4.12088 1.45801 5.53042 1.45801 7.00016Z" fill="white"/>
</g>
<defs>
<clipPath id="clip0_206_12066">
<rect width="14" height="14" fill="white"/>
</clipPath>
</defs>
</svg>
