<svg width="24" height="24" viewBox="0 0 24 24" fill="none" xmlns="http://www.w3.org/2000/svg">
<path d="M7.59 5.41012C6.81 4.63012 6.81 3.36012 7.59 2.58012C8.37 1.80012 9.64 1.80012 10.42 2.58012C11.2 3.36012 11.2 4.63012 10.42 5.41012C9.63 6.20012 8.37 6.20012 7.59 5.41012ZM6 16.0001V7.00012H4V16.0001C4 17.3262 4.52678 18.598 5.46447 19.5357C6.40215 20.4733 7.67392 21.0001 9 21.0001H15V19.0001H9C8.20435 19.0001 7.44129 18.684 6.87868 18.1214C6.31607 17.5588 6 16.7958 6 16.0001ZM20 20.0701L14.93 15.0001H11.5V11.3201C12.9 12.4701 15.1 13.5001 17 13.5001V11.3201C15.34 11.3401 13.39 10.4501 12.33 9.28012L10.93 7.73012C10.74 7.50012 10.5 7.35012 10.24 7.23012C9.95 7.09012 9.62 7.00012 9.28 7.00012H9.25C8 7.00012 7 8.00012 7 9.25012V15.0001C7 15.7958 7.31607 16.5588 7.87868 17.1214C8.44129 17.684 9.20435 18.0001 10 18.0001H15.07L18.57 21.5001" fill="#45B2CA"/>
</svg>
