<svg width="24" height="24" viewBox="0 0 24 24" fill="none" xmlns="http://www.w3.org/2000/svg">
<path d="M18.765 18.5795C19.858 17.2882 20.559 15.7114 20.7853 14.0349C21.0115 12.3584 20.7537 10.6521 20.042 9.11732C19.3304 7.58255 18.1947 6.28329 16.7689 5.37278C15.3431 4.46227 13.6867 3.97848 11.995 3.97848C10.3032 3.97848 8.6468 4.46227 7.221 5.37278C5.7952 6.28329 4.65952 7.58255 3.9479 9.11732C3.23627 10.6521 2.97839 12.3584 3.20466 14.0349C3.43094 15.7114 4.13193 17.2882 5.22496 18.5795L3.34496 20.4594C3.24021 20.5643 3.16888 20.6979 3.14 20.8433C3.11112 20.9887 3.12597 21.1394 3.18268 21.2764C3.23939 21.4133 3.33542 21.5304 3.45863 21.6128C3.58185 21.6953 3.72672 21.7393 3.87496 21.7395C3.97384 21.7423 4.07219 21.7242 4.16354 21.6863C4.2549 21.6483 4.33718 21.5915 4.40497 21.5194L6.28496 19.6395C7.87842 20.9956 9.90254 21.7404 11.995 21.7404C14.0874 21.7404 16.1115 20.9956 17.705 19.6395L19.585 21.5194C19.6528 21.5915 19.735 21.6483 19.8264 21.6863C19.9177 21.7242 20.0161 21.7423 20.115 21.7395C20.2135 21.7399 20.3111 21.7207 20.4022 21.6829C20.4932 21.6451 20.5757 21.5896 20.645 21.5194C20.7854 21.3788 20.8643 21.1882 20.8643 20.9895C20.8643 20.7907 20.7854 20.6001 20.645 20.4594L18.765 18.5795ZM15.015 15.8995C14.8276 16.0857 14.5742 16.1902 14.31 16.1902C14.0458 16.1902 13.7923 16.0857 13.605 15.8995L10.995 13.2894V8.22945C10.995 7.96423 11.1003 7.70988 11.2879 7.52234C11.4754 7.33481 11.7297 7.22945 11.995 7.22945C12.2602 7.22945 12.5145 7.33481 12.7021 7.52234C12.8896 7.70988 12.995 7.96423 12.995 8.22945V12.4594L14.995 14.4594C15.0931 14.5514 15.1716 14.6621 15.2259 14.7851C15.2802 14.9081 15.3092 15.0408 15.311 15.1752C15.3129 15.3096 15.2876 15.443 15.2368 15.5675C15.1859 15.6919 15.1105 15.8048 15.015 15.8995ZM20.685 6.09945C20.4872 6.09418 20.2983 6.0158 20.155 5.87945L17.845 3.55945C17.7742 3.4905 17.718 3.40809 17.6796 3.31706C17.6412 3.22604 17.6214 3.12824 17.6214 3.02945C17.6214 2.93066 17.6412 2.83286 17.6796 2.74184C17.718 2.65081 17.7742 2.5684 17.845 2.49945C17.9856 2.359 18.1762 2.28011 18.375 2.28011C18.5737 2.28011 18.7643 2.359 18.905 2.49945L21.265 4.77945C21.4054 4.92008 21.4843 5.1107 21.4843 5.30945C21.4843 5.5082 21.4054 5.69883 21.265 5.83945C21.1912 5.92012 21.1017 5.98481 21.0019 6.02952C20.9021 6.07424 20.7943 6.09804 20.685 6.09945ZM3.26497 6.09945C3.06717 6.09418 2.87835 6.0158 2.73496 5.87945C2.59451 5.73883 2.51563 5.5482 2.51562 5.34945C2.51563 5.1507 2.59451 4.96008 2.73496 4.81945L5.05496 2.49945C5.12363 2.42576 5.20643 2.36666 5.29843 2.32567C5.39043 2.28468 5.48974 2.26264 5.59044 2.26086C5.69115 2.25908 5.79117 2.27761 5.88456 2.31533C5.97795 2.35305 6.06278 2.40919 6.134 2.48041C6.20522 2.55163 6.26137 2.63646 6.29909 2.72985C6.33681 2.82324 6.35533 2.92327 6.35356 3.02397C6.35178 3.12468 6.32974 3.22399 6.28875 3.31599C6.24775 3.40799 6.18865 3.49079 6.11496 3.55945L3.79497 5.87945C3.65445 6.02014 3.46381 6.09928 3.26497 6.09945Z" fill="black"/>
</svg>
