<svg width="12" height="12" viewBox="0 0 12 12" fill="none" xmlns="http://www.w3.org/2000/svg">
<path d="M7.5 8.345V6.5H8.25V7.91L9.47 8.615L9.095 9.265L7.5 8.345ZM1.5 11V1.5H10.5V5.55C11.12 6.18 11.5 7.045 11.5 8C11.5 9.935 9.935 11.5 8 11.5C7.51817 11.5013 7.04133 11.4025 6.59976 11.2097C6.15818 11.0168 5.76153 10.7343 5.435 10.38L4.5 11L3 10L1.5 11ZM4.835 6.5C5.015 6.125 5.25 5.785 5.55 5.5H3.5V6.5H4.835ZM8.5 4.5V3.5H3.5V4.5H8.5ZM8 10.5C9.38 10.5 10.5 9.38 10.5 8C10.5 6.62 9.38 5.5 8 5.5C6.62 5.5 5.5 6.62 5.5 8C5.5 9.38 6.62 10.5 8 10.5Z" fill="black"/>
</svg>
