<svg width="24" height="24" viewBox="0 0 24 24" fill="none" xmlns="http://www.w3.org/2000/svg">
<path d="M13.2898 12.4756L11.1569 11.6983L8.59464 18.7287H2.13565C1.50749 18.7287 1 19.2362 1 19.8644C1 20.4925 1.50749 21 2.13565 21H20.306C20.9341 21 21.4416 20.4925 21.4416 19.8644C21.4416 19.2362 20.9341 18.7287 20.306 18.7287H11.0114L13.2863 12.4756H13.2898ZM17.5875 12.4685L17.4704 12.7914L19.873 13.6644C20.5154 13.8987 21.2216 13.5154 21.2784 12.834C21.5091 10.0481 20.4302 7.31546 18.4109 5.43454C18.4819 5.71845 18.5244 6.01301 18.5315 6.31467L18.5386 6.5276C18.6025 8.55047 18.2796 10.5662 17.5875 12.4685ZM17.3959 6.34661C17.3569 5.12579 16.5974 4.04692 15.4653 3.59976C15.4334 3.58557 15.3979 3.57492 15.3659 3.56073C14.1948 3.1455 12.8888 3.47555 12.0619 4.40536L11.92 4.56506C10.6672 5.96333 9.69479 7.59227 9.04889 9.35962L8.93178 9.68257L16.4022 12.401L16.5193 12.0781C17.1617 10.3107 17.4633 8.44046 17.403 6.55954L17.3959 6.34661ZM4.80442 6.83636C4.41049 7.39353 4.70505 8.14235 5.3474 8.37658L7.86711 9.29219L7.98423 8.96924C8.67626 7.06703 9.72673 5.31388 11.0753 3.8056L11.2173 3.6459C11.4373 3.40103 11.6822 3.18454 11.9448 3C9.11987 3.08872 6.45465 4.49763 4.80442 6.83281V6.83636Z" fill="#696B6B"/>
</svg>
