<svg width="24" height="24" viewBox="0 0 24 24" fill="none" xmlns="http://www.w3.org/2000/svg">
<path d="M8.20403 5.29593C7.99268 5.08459 7.87395 4.79794 7.87395 4.49906C7.87395 4.20017 7.99268 3.91353 8.20403 3.70218C8.41537 3.49084 8.70201 3.3721 9.0009 3.3721C9.29979 3.3721 9.58643 3.49084 9.79778 3.70218L17.2978 11.2022C17.4027 11.3067 17.4859 11.4309 17.5427 11.5676C17.5994 11.7044 17.6287 11.851 17.6287 11.9991C17.6287 12.1471 17.5994 12.2937 17.5427 12.4305C17.4859 12.5672 17.4027 12.6914 17.2978 12.7959L9.79778 20.2959C9.58643 20.5073 9.29979 20.626 9.0009 20.626C8.70201 20.626 8.41537 20.5073 8.20403 20.2959C7.99268 20.0846 7.87395 19.7979 7.87395 19.4991C7.87395 19.2002 7.99268 18.9135 8.20403 18.7022L14.9062 12L8.20403 5.29593Z" fill="#4C5CF0"/>
</svg>
