<svg width="24" height="24" viewBox="0 0 24 24" fill="none" xmlns="http://www.w3.org/2000/svg">
<path fill-rule="evenodd" clip-rule="evenodd" d="M12.3686 11.9547L12.3566 11.9567L12.2856 11.9917L12.2656 11.9957L12.2516 11.9917L12.1806 11.9557C12.1699 11.9531 12.1619 11.955 12.1566 11.9617L12.1526 11.9717L12.1356 12.3997L12.1406 12.4197L12.1506 12.4327L12.2546 12.5067L12.2696 12.5107L12.2816 12.5067L12.3856 12.4327L12.3976 12.4167L12.4016 12.3997L12.3846 11.9727C12.3819 11.962 12.3766 11.956 12.3686 11.9547ZM12.6326 11.8417L12.6186 11.8437L12.4346 11.9367L12.4246 11.9467L12.4216 11.9577L12.4396 12.3877L12.4446 12.3997L12.4526 12.4077L12.6536 12.4997C12.6663 12.503 12.6759 12.5004 12.6826 12.4917L12.6866 12.4777L12.6526 11.8637C12.6493 11.851 12.6426 11.8437 12.6326 11.8417ZM11.9176 11.8437C11.9132 11.841 11.9079 11.8402 11.9029 11.8413C11.8979 11.8424 11.8934 11.8454 11.8906 11.8497L11.8846 11.8637L11.8506 12.4777C11.8513 12.4897 11.8569 12.4977 11.8676 12.5017L11.8826 12.4997L12.0836 12.4067L12.0936 12.3987L12.0966 12.3877L12.1146 11.9577L12.1116 11.9457L12.1016 11.9357L11.9176 11.8437Z" fill="white"/>
<path fill-rule="evenodd" clip-rule="evenodd" d="M10.8579 5.27827C10.5034 6.51016 10.0965 7.72634 9.63829 8.9235C10.0456 9.29927 10.4258 9.70992 10.8174 10.1014L11.2449 9.24639C11.3246 9.08704 11.4411 8.94891 11.5846 8.84337C11.7282 8.73783 11.8948 8.6679 12.0707 8.63934C12.2466 8.61077 12.4267 8.62439 12.5963 8.67908C12.7659 8.73376 12.9201 8.82794 13.0461 8.95387L14.1926 10.1014L14.6201 9.24639C14.681 9.12497 14.7633 9.01558 14.8631 8.9235C14.4049 7.72634 13.998 6.51016 13.6435 5.27827C13.63 5.22764 13.5524 5.25014 13.5142 5.25014L12.5241 5.49766C12.3446 5.54262 12.1568 5.54262 11.9773 5.49766L10.9872 5.25014C10.9467 5.25014 10.8725 5.22426 10.8579 5.27827ZM3.01163 17.9522C2.84512 18.2683 2.70111 18.5372 2.5841 18.7499H2.12507C1.82668 18.7499 1.54052 18.8684 1.32953 19.0794C1.11853 19.2904 1 19.5765 1 19.8749C1 20.1733 1.11853 20.4595 1.32953 20.6705C1.54052 20.8815 1.82668 21 2.12507 21H22.3763C22.6747 21 22.9609 20.8815 23.1719 20.6705C23.3829 20.4595 23.5014 20.1733 23.5014 19.8749C23.5014 19.5765 23.3829 19.2904 23.1719 19.0794C22.9609 18.8684 22.6747 18.7499 22.3763 18.7499H21.9162C21.7999 18.5353 21.6574 18.2695 21.4887 17.9522C20.8721 16.7861 20.2772 15.6087 19.7043 14.4206C18.3148 11.5415 16.7184 7.88618 15.8093 4.66623C15.676 4.18837 15.3904 3.76706 14.9959 3.46632C14.6013 3.16559 14.1194 3.00185 13.6233 3C13.1474 3 12.712 3.13163 12.2518 3.24752C11.7906 3.13163 11.3563 3 10.8792 3C9.84305 3 8.9655 3.70204 8.69323 4.66623C7.78417 7.88731 6.18657 11.5427 4.79824 14.4217C4.22493 15.6102 3.62967 16.788 3.01275 17.9544" fill="white"/>
</svg>
