<svg width="12" height="12" viewBox="0 0 12 12" fill="none" xmlns="http://www.w3.org/2000/svg">
<g clip-path="url(#clip0_428_100)">
<path d="M5.2609 9.037C5.31683 9.09274 5.36122 9.15898 5.3915 9.23191C5.42178 9.30484 5.43737 9.38303 5.43737 9.462C5.43737 9.54097 5.42178 9.61916 5.3915 9.69209C5.36122 9.76502 5.31683 9.83125 5.2609 9.88699L5.0049 10.143C4.73315 10.4157 4.41003 10.6319 4.05421 10.779C3.69839 10.9261 3.31694 11.0012 2.93192 11C2.35209 11.0002 1.78523 10.8284 1.30306 10.5063C0.820893 10.1843 0.445077 9.72645 0.223161 9.19077C0.00124513 8.65509 -0.0567995 8.06562 0.0563706 7.49695C0.169541 6.92827 0.448841 6.40593 0.858935 5.99603L2.59642 4.25854C2.96598 3.88903 3.4276 3.62502 3.93347 3.49382C4.43934 3.36263 4.97108 3.36904 5.47364 3.51237C5.9762 3.65571 6.43132 3.93076 6.79188 4.30906C7.15244 4.68737 7.40533 5.15516 7.52438 5.66403C7.5441 5.7414 7.54817 5.82193 7.53637 5.90089C7.52456 5.97986 7.49712 6.05568 7.45564 6.1239C7.41416 6.19212 7.35948 6.25138 7.2948 6.2982C7.23013 6.34502 7.15676 6.37846 7.07899 6.39656C7.00123 6.41466 6.92063 6.41706 6.84193 6.40362C6.76323 6.39017 6.688 6.36115 6.62065 6.31826C6.55331 6.27537 6.4952 6.21947 6.44974 6.15384C6.40428 6.0882 6.37237 6.01415 6.35589 5.93603C6.28525 5.63564 6.13566 5.35958 5.92259 5.13637C5.70952 4.91317 5.4407 4.75092 5.14393 4.6664C4.84715 4.58189 4.53318 4.57817 4.23449 4.65563C3.93579 4.7331 3.66321 4.88894 3.44491 5.10703L1.70743 6.84452C1.46523 7.08652 1.30024 7.3949 1.23332 7.73067C1.1664 8.06644 1.20056 8.41451 1.33147 8.73087C1.46238 9.04723 1.68416 9.31766 1.96878 9.50796C2.25339 9.69827 2.58804 9.7999 2.93042 9.79999C3.15791 9.80066 3.38327 9.7562 3.59345 9.66917C3.80364 9.58214 3.99447 9.45428 4.15491 9.293L4.41041 9.037C4.46616 8.98099 4.53242 8.93655 4.6054 8.90622C4.67838 8.87589 4.75662 8.86028 4.83565 8.86028C4.91468 8.86028 4.99293 8.87589 5.0659 8.90622C5.13888 8.93655 5.20515 8.98099 5.2609 9.037ZM10.7434 1.85856C10.1934 1.30882 9.44769 1 8.67012 1C7.89255 1 7.14681 1.30882 6.59689 1.85856L6.34139 2.11406C6.22867 2.22678 6.16535 2.37965 6.16535 2.53906C6.16535 2.69846 6.22867 2.85134 6.34139 2.96405C6.4541 3.07677 6.60698 3.14009 6.76639 3.14009C6.92579 3.14009 7.07867 3.07677 7.19138 2.96405L7.44738 2.70805C7.77227 2.38317 8.21291 2.20065 8.67237 2.20065C9.13183 2.20065 9.57247 2.38317 9.89736 2.70805C10.2222 3.03294 10.4048 3.47358 10.4048 3.93304C10.4048 4.3925 10.2222 4.83315 9.89736 5.15803L8.15687 6.89302C7.99644 7.05431 7.80561 7.18216 7.59542 7.26919C7.38524 7.35622 7.15987 7.40068 6.93238 7.40001C6.54214 7.39974 6.16342 7.26764 5.85767 7.02514C5.55191 6.78264 5.33704 6.44396 5.2479 6.06403C5.21183 5.90901 5.11566 5.77467 4.98054 5.69056C4.84542 5.60645 4.68242 5.57946 4.5274 5.61553C4.37239 5.6516 4.23805 5.74777 4.15394 5.88289C4.06983 6.01801 4.04284 6.18101 4.07891 6.33602C4.22946 6.97946 4.59296 7.55316 5.11045 7.96411C5.62794 8.37505 6.26907 8.59913 6.92988 8.6H6.93238C7.31759 8.60106 7.69918 8.52573 8.05509 8.37837C8.41099 8.23102 8.73415 8.01456 9.00587 7.74151L10.7434 6.00403C11.0156 5.73185 11.2315 5.40872 11.3789 5.05307C11.5262 4.69743 11.602 4.31625 11.602 3.93129C11.602 3.54634 11.5262 3.16516 11.3789 2.80951C11.2315 2.45387 11.0156 2.13074 10.7434 1.85856Z" fill="#696B6B"/>
</g>
<defs>
<clipPath id="clip0_428_100">
<rect width="12" height="12" fill="white"/>
</clipPath>
</defs>
</svg>
