<svg width="14" height="14" viewBox="0 0 14 14" fill="none" xmlns="http://www.w3.org/2000/svg">
<circle cx="7" cy="7" r="6.5" stroke="black"/>
<path d="M11.0819 5.14456L6.08187 10.1446C6.03832 10.1883 5.98657 10.2229 5.92959 10.2466C5.87262 10.2703 5.81153 10.2824 5.74984 10.2824C5.68814 10.2824 5.62706 10.2703 5.57008 10.2466C5.5131 10.2229 5.46135 10.1883 5.41781 10.1446L3.23031 7.95706C3.1867 7.91346 3.15211 7.8617 3.12852 7.80473C3.10492 7.74776 3.09277 7.6867 3.09277 7.62503C3.09277 7.56337 3.10492 7.50231 3.12852 7.44534C3.15211 7.38837 3.1867 7.3366 3.23031 7.293C3.27391 7.2494 3.32567 7.21481 3.38264 7.19121C3.43961 7.16761 3.50067 7.15547 3.56234 7.15547C3.624 7.15547 3.68506 7.16761 3.74203 7.19121C3.799 7.21481 3.85076 7.2494 3.89437 7.293L5.75023 9.14886L10.4186 4.48128C10.5066 4.39322 10.6261 4.34375 10.7506 4.34375C10.8752 4.34375 10.9946 4.39322 11.0826 4.48128C11.1707 4.56934 11.2202 4.68878 11.2202 4.81331C11.2202 4.93785 11.1707 5.05728 11.0826 5.14534L11.0819 5.14456Z" fill="black"/>
</svg>
