<svg width="12" height="12" viewBox="0 0 12 12" fill="none" xmlns="http://www.w3.org/2000/svg">
<path fill-rule="evenodd" clip-rule="evenodd" d="M1 2.03571C1 1.44643 1.49714 1 2.07143 1H9.92857C10.5029 1 11 1.44643 11 2.03571V6.03572C11 6.625 10.5029 7.07143 9.92857 7.07143H2.07143C1.49714 7.07143 1 6.625 1 6.03572V2.03571ZM7.42857 4.03571C7.42857 4.4146 7.27806 4.77796 7.01015 5.04587C6.74224 5.31378 6.37888 5.46429 6 5.46429C5.62112 5.46429 5.25776 5.31378 4.98985 5.04587C4.72194 4.77796 4.57143 4.4146 4.57143 4.03571C4.57143 3.65683 4.72194 3.29347 4.98985 3.02556C5.25776 2.75765 5.62112 2.60714 6 2.60714C6.37888 2.60714 6.74224 2.75765 7.01015 3.02556C7.27806 3.29347 7.42857 3.65683 7.42857 4.03571ZM3.5 4.21429C3.5 4.14393 3.48614 4.07427 3.45922 4.00928C3.4323 3.94428 3.39284 3.88522 3.34309 3.83548C3.29335 3.78573 3.23429 3.74627 3.16929 3.71935C3.1043 3.69243 3.03464 3.67857 2.96429 3.67857C2.89393 3.67857 2.82427 3.69243 2.75928 3.71935C2.69428 3.74627 2.63522 3.78573 2.58548 3.83548C2.53573 3.88522 2.49627 3.94428 2.46935 4.00928C2.44243 4.07427 2.42857 4.14393 2.42857 4.21429C2.42857 4.35637 2.48501 4.49263 2.58548 4.59309C2.68594 4.69356 2.82221 4.75 2.96429 4.75C3.10637 4.75 3.24263 4.69356 3.34309 4.59309C3.44356 4.49263 3.5 4.35637 3.5 4.21429ZM9.03571 3.67857C9.17779 3.67857 9.31406 3.73501 9.41452 3.83548C9.51499 3.93594 9.57143 4.07221 9.57143 4.21429C9.57143 4.35637 9.51499 4.49263 9.41452 4.59309C9.31406 4.69356 9.17779 4.75 9.03571 4.75C8.89363 4.75 8.75737 4.69356 8.65691 4.59309C8.55644 4.49263 8.5 4.35637 8.5 4.21429C8.5 4.07221 8.55644 3.93594 8.65691 3.83548C8.75737 3.73501 8.89363 3.67857 9.03571 3.67857ZM4.66071 8.5C4.66071 8.3816 4.61368 8.26805 4.52996 8.18433C4.44624 8.10061 4.33269 8.05357 4.21429 8.05357C4.09589 8.05357 3.98233 8.10061 3.89861 8.18433C3.81489 8.26805 3.76786 8.3816 3.76786 8.5V9.92857C3.76786 10.047 3.81489 10.1605 3.89861 10.2442C3.98233 10.328 4.09589 10.375 4.21429 10.375C4.33269 10.375 4.44624 10.328 4.52996 10.2442C4.61368 10.1605 4.66071 10.047 4.66071 9.92857V8.5ZM7.78571 8.05357C8.03214 8.05357 8.23214 8.25357 8.23214 8.5V9.92857C8.23214 9.9872 8.2206 10.0452 8.19816 10.0994C8.17573 10.1536 8.14284 10.2028 8.10139 10.2442C8.05993 10.2857 8.01072 10.3186 7.95655 10.341C7.90239 10.3635 7.84434 10.375 7.78571 10.375C7.72709 10.375 7.66904 10.3635 7.61487 10.341C7.56071 10.3186 7.5115 10.2857 7.47004 10.2442C7.42859 10.2028 7.3957 10.1536 7.37327 10.0994C7.35083 10.0452 7.33929 9.9872 7.33929 9.92857V8.5C7.33929 8.25357 7.53929 8.05357 7.78571 8.05357ZM6 8.58929C6.24643 8.58929 6.44643 8.78929 6.44643 9.03572V10.4643C6.44643 10.5827 6.39939 10.6962 6.31567 10.78C6.23195 10.8637 6.1184 10.9107 6 10.9107C5.8816 10.9107 5.76805 10.8637 5.68433 10.78C5.60061 10.6962 5.55357 10.5827 5.55357 10.4643V9.03572C5.55357 8.78929 5.75357 8.58929 6 8.58929Z" fill="white"/>
</svg>
