<svg width="14" height="14" viewBox="0 0 14 14" fill="none" xmlns="http://www.w3.org/2000/svg">
<path d="M9.73438 2.1875C8.60508 2.1875 7.61633 2.67312 7 3.49398C6.38367 2.67312 5.39492 2.1875 4.26562 2.1875C3.36669 2.18851 2.50486 2.54606 1.86921 3.18171C1.23356 3.81736 0.876013 4.67919 0.875 5.57812C0.875 9.40625 6.55102 12.5048 6.79273 12.6328C6.85644 12.6671 6.92766 12.685 7 12.685C7.07234 12.685 7.14356 12.6671 7.20727 12.6328C7.44898 12.5048 13.125 9.40625 13.125 5.57812C13.124 4.67919 12.7664 3.81736 12.1308 3.18171C11.4951 2.54606 10.6333 2.18851 9.73438 2.1875ZM7 11.7469C6.00141 11.165 1.75 8.5143 1.75 5.57812C1.75087 4.91121 2.01619 4.27185 2.48777 3.80027C2.95935 3.32869 3.59871 3.06337 4.26562 3.0625C5.3293 3.0625 6.22234 3.62906 6.59531 4.53906C6.62827 4.6193 6.68435 4.68794 6.7564 4.73624C6.82846 4.78454 6.91325 4.81033 7 4.81033C7.08675 4.81033 7.17154 4.78454 7.2436 4.73624C7.31565 4.68794 7.37173 4.6193 7.40469 4.53906C7.77766 3.62742 8.6707 3.0625 9.73438 3.0625C10.4013 3.06337 11.0406 3.32869 11.5122 3.80027C11.9838 4.27185 12.2491 4.91121 12.25 5.57812C12.25 8.50992 7.9975 11.1645 7 11.7469Z" fill="white"/>
</svg>
