<svg width="12" height="12" viewBox="0 0 12 12" fill="none" xmlns="http://www.w3.org/2000/svg">
<path d="M10.5 5V4.5L7.5 1.5H2.5C1.945 1.5 1.5 1.945 1.5 2.5V9.5C1.5 9.76522 1.60536 10.0196 1.79289 10.2071C1.98043 10.3946 2.23478 10.5 2.5 10.5H5.5V9.565L9.695 5.37C9.915 5.15 10.195 5.03 10.5 5ZM7 2.25L9.75 5H7V2.25ZM11.425 7.095L10.935 7.585L9.915 6.565L10.405 6.075C10.5 5.975 10.665 5.975 10.765 6.075L11.425 6.735C11.525 6.835 11.525 7 11.425 7.095ZM9.565 6.915L10.585 7.935L7.52 11H6.5V9.98L9.565 6.915Z" fill="white"/>
</svg>
